<svg width="108" height="108" viewBox="0 0 108 108" fill="none" xmlns="http://www.w3.org/2000/svg">
<g clip-path="url(#clip0_491_971)">
<path d="M27.297 31.3613C25.1792 31.3613 23.0015 33.0584 23.0015 36.0289C23.0015 38.7446 24.9162 40.6627 27.297 40.6627C29.2623 40.6627 30.1381 39.3436 30.1381 39.3436V39.9186C30.1381 40.1903 30.3951 40.4936 30.7131 40.4936H32.1337V31.5643H30.1381V32.6974C30.1381 32.6974 29.2549 31.3613 27.297 31.3613ZM27.6525 33.1872C29.3959 33.1872 30.3104 34.7205 30.3104 36.0283C30.3104 37.4849 29.2246 38.8684 27.6562 38.8684C26.3451 38.8684 25.0317 37.8065 25.0317 36.009C25.0317 34.3865 26.1619 33.1872 27.6525 33.1872Z" fill="black"/>
<path d="M34.907 40.4943C34.6004 40.4943 34.332 40.2744 34.332 39.9193V31.565H36.3276V32.67C36.7798 31.9903 37.6632 31.3594 39.0192 31.3594C41.2356 31.3594 42.4158 33.1261 42.4158 34.7782V40.4943H41.029C40.6654 40.4943 40.4202 40.1899 40.4202 39.8855V35.2179C40.4202 34.3022 39.8591 33.19 38.5615 33.19C37.1613 33.19 36.3276 34.5133 36.3276 35.7591V40.4943L34.907 40.4943Z" fill="black"/>
<path d="M48.2335 31.3613C46.1157 31.3613 43.938 33.0584 43.938 36.0289C43.938 38.7445 45.8527 40.6627 48.2335 40.6627C50.1988 40.6627 51.0746 39.3436 51.0746 39.3436V39.9186C51.0746 40.1903 51.3316 40.4936 51.6496 40.4936H53.0702V27.0996H51.0746V32.6973C51.0746 32.6973 50.1914 31.3613 48.2335 31.3613ZM48.589 33.1872C50.3324 33.1872 51.2469 34.7205 51.2469 36.0283C51.2469 37.4849 50.1611 38.8683 48.5927 38.8683C47.2816 38.8683 45.9682 37.8065 45.9682 36.009C45.9682 34.3865 47.0984 33.1872 48.589 33.1872Z" fill="black"/>
<path d="M55.8435 40.4936C55.5369 40.4936 55.2686 40.2737 55.2686 39.9186V31.5644H57.2641V33.0526C57.6076 32.2189 58.3488 31.4629 59.6655 31.4629C60.0326 31.4629 60.3758 31.5305 60.3758 31.5305V33.5937C60.3758 33.5937 59.9473 33.4246 59.4288 33.4246C58.0286 33.4246 57.2641 34.7479 57.2641 35.9937V40.4936H55.8435Z" fill="black"/>
<path d="M72.4847 40.4937C72.1781 40.4937 71.9097 40.2738 71.9097 39.9187V31.5645H73.9052V40.4937L72.4847 40.4937Z" fill="black"/>
<path d="M79.7565 31.3613C77.6386 31.3613 75.4609 33.0584 75.4609 36.0289C75.4609 38.7445 77.3756 40.6627 79.7565 40.6627C81.7217 40.6627 82.5976 39.3436 82.5976 39.3436V39.9186C82.5976 40.1903 82.8546 40.4936 83.1726 40.4936H84.5932V27.0996H82.5976V32.6973C82.5976 32.6973 81.7144 31.3613 79.7565 31.3613ZM80.112 33.1872C81.8554 33.1872 82.7699 34.7205 82.7699 36.0283C82.7699 37.4849 81.6841 38.8683 80.1156 38.8683C78.8045 38.8683 77.4912 37.8065 77.4912 36.009C77.4912 34.3865 78.6214 33.1872 80.112 33.1872Z" fill="black"/>
<path d="M72.8932 29.639C73.6219 29.639 74.2127 29.0482 74.2127 28.3195C74.2127 27.5908 73.6219 27 72.8932 27C72.1645 27 71.5737 27.5908 71.5737 28.3195C71.5737 29.0482 72.1645 29.639 72.8932 29.639Z" fill="black"/>
<path d="M65.6391 31.3594C63.4211 31.3594 60.9844 33.015 60.9844 36.0141C60.9844 38.747 63.0599 40.664 65.6342 40.664C68.8068 40.664 70.356 38.1136 70.356 36.0314C70.356 33.4763 68.3612 31.3594 65.6391 31.3594ZM65.6463 33.2229C67.1801 33.2229 68.3242 34.4591 68.3242 36.0197C68.3242 37.6073 67.1097 38.8324 65.6509 38.8324C64.2967 38.8324 62.9803 37.7304 62.9803 36.0464C62.9803 34.3343 64.2323 33.2229 65.6463 33.2229Z" fill="black"/>
<path d="M68.8283 56.667L73.9341 47.8223C74.2222 47.3265 74.048 46.6967 73.5589 46.4085C73.0697 46.1204 72.4332 46.2879 72.1518 46.7838L66.979 55.7423C63.0324 53.9399 58.59 52.9348 53.8125 52.9348C49.035 52.9348 44.5926 53.9399 40.646 55.7423L35.4732 46.7838C35.1851 46.2879 34.5553 46.1204 34.0594 46.4085C33.5636 46.6967 33.3961 47.3265 33.6842 47.8223L38.79 56.667C29.9855 61.4378 24.0221 70.3494 23.0371 80.782H84.5879C83.603 70.3493 77.6394 61.4377 68.8283 56.667ZM39.6811 72.1384C38.2539 72.1384 37.1014 70.9792 37.1014 69.5587C37.1014 68.1315 38.2606 66.979 39.6811 66.979C41.1083 66.979 42.2608 68.1382 42.2608 69.5587C42.2676 70.9792 41.1083 72.1384 39.6811 72.1384ZM67.9372 72.1384C66.51 72.1384 65.3575 70.9792 65.3575 69.5587C65.3575 68.1315 66.5167 66.979 67.9372 66.979C69.3644 66.979 70.5169 68.1382 70.5169 69.5587C70.5236 70.9792 69.3644 72.1384 67.9372 72.1384Z" fill="#32DE84"/>
</g>
<defs>
<clipPath id="clip0_491_971">
<rect width="61.5918" height="53.7622" fill="white" transform="translate(23 27)"/>
</clipPath>
</defs>
</svg>
