<svg width="108" height="108" viewBox="0 0 108 108" fill="none" xmlns="http://www.w3.org/2000/svg">
<g clip-path="url(#clip0_491_1906)">
<path d="M37.427 48.2353C37.427 49.1957 37.5309 49.9744 37.7126 50.5455C37.9202 51.1165 38.1798 51.7395 38.5432 52.4144C38.673 52.6221 38.7249 52.8297 38.7249 53.0114C38.7249 53.271 38.5692 53.5306 38.2317 53.7901L36.5964 54.8803C36.3628 55.0361 36.1292 55.114 35.9215 55.114C35.6619 55.114 35.4024 54.9842 35.1428 54.7505C34.7794 54.3612 34.4679 53.9459 34.2083 53.5306C33.9488 53.0893 33.6892 52.5961 33.4037 51.9991C31.379 54.3871 28.8352 55.5812 25.7722 55.5812C23.5918 55.5812 21.8527 54.9582 20.5808 53.7123C19.3088 52.4663 18.6599 50.805 18.6599 48.7285C18.6599 46.5221 19.4386 44.731 21.022 43.3813C22.6054 42.0315 24.708 41.3566 27.3816 41.3566C28.2641 41.3566 29.1726 41.4345 30.133 41.5642C31.0935 41.694 32.0798 41.9017 33.1181 42.1353V40.2404C33.1181 38.2677 32.7028 36.8919 31.8981 36.0873C31.0675 35.2826 29.6658 34.8932 27.6671 34.8932C26.7586 34.8932 25.8241 34.997 24.8637 35.2307C23.9033 35.4643 22.9688 35.7498 22.0603 36.1132C21.645 36.2949 21.3335 36.3987 21.1518 36.4507C20.9701 36.5026 20.8403 36.5285 20.7365 36.5285C20.3731 36.5285 20.1914 36.269 20.1914 35.7239V34.4519C20.1914 34.0366 20.2433 33.7251 20.3731 33.5434C20.5029 33.3617 20.7365 33.18 21.0999 32.9983C22.0084 32.5311 23.0986 32.1417 24.3705 31.8303C25.6424 31.4928 26.9922 31.3371 28.4199 31.3371C31.5088 31.3371 33.7671 32.0379 35.2207 33.4396C36.6483 34.8413 37.3751 36.9698 37.3751 39.8251V48.2353H37.427ZM26.8884 52.1808C27.745 52.1808 28.6275 52.025 29.562 51.7135C30.4964 51.4021 31.3271 50.831 32.0279 50.0523C32.4432 49.5591 32.7547 49.014 32.9105 48.391C33.0662 47.768 33.17 47.0153 33.17 46.1327V45.0425C32.4173 44.8608 31.6126 44.7051 30.782 44.6012C29.9513 44.4974 29.1467 44.4455 28.342 44.4455C26.6028 44.4455 25.3309 44.7829 24.4743 45.4838C23.6178 46.1846 23.2024 47.171 23.2024 48.4689C23.2024 49.6889 23.5139 50.5974 24.1629 51.2204C24.7858 51.8693 25.6943 52.1808 26.8884 52.1808ZM47.7321 54.9842C47.2648 54.9842 46.9534 54.9063 46.7457 54.7246C46.538 54.5688 46.3563 54.2054 46.2006 53.7123L40.1006 33.6473C39.9449 33.1281 39.867 32.7907 39.867 32.609C39.867 32.1937 40.0747 31.96 40.49 31.96H43.0338C43.527 31.96 43.8644 32.0379 44.0461 32.2196C44.2538 32.3754 44.4095 32.7388 44.5653 33.232L48.9261 50.4157L52.9755 33.232C53.1052 32.7128 53.261 32.3754 53.4686 32.2196C53.6763 32.0639 54.0397 31.96 54.5069 31.96H56.5835C57.0767 31.96 57.4141 32.0379 57.6218 32.2196C57.8295 32.3754 58.0112 32.7388 58.115 33.232L62.2162 50.6233L66.7069 33.232C66.8626 32.7128 67.0443 32.3754 67.226 32.2196C67.4337 32.0639 67.7711 31.96 68.2383 31.96H70.6524C71.0677 31.96 71.3013 32.1677 71.3013 32.609C71.3013 32.7388 71.2753 32.8686 71.2494 33.0243C71.2234 33.18 71.1715 33.3877 71.0677 33.6732L64.812 53.7382C64.6562 54.2574 64.4745 54.5948 64.2669 54.7505C64.0592 54.9063 63.7218 55.0101 63.2805 55.0101H61.0482C60.555 55.0101 60.2175 54.9322 60.0099 54.7505C59.8022 54.5688 59.6205 54.2314 59.5167 53.7123L55.4933 36.9698L51.4959 53.6863C51.3661 54.2054 51.2104 54.5429 51.0027 54.7246C50.795 54.9063 50.4316 54.9842 49.9644 54.9842H47.7321ZM81.0872 55.685C79.7374 55.685 78.3876 55.5293 77.0898 55.2178C75.7919 54.9063 74.7796 54.5688 74.1047 54.1795C73.6894 53.9459 73.4038 53.6863 73.3 53.4527C73.1962 53.2191 73.1443 52.9595 73.1443 52.7259V51.4021C73.1443 50.857 73.3519 50.5974 73.7413 50.5974C73.897 50.5974 74.0528 50.6233 74.2085 50.6753C74.3643 50.7272 74.5979 50.831 74.8574 50.9348C75.74 51.3242 76.7004 51.6357 77.7128 51.8433C78.751 52.051 79.7634 52.1548 80.8017 52.1548C82.437 52.1548 83.7089 51.8693 84.5914 51.2982C85.474 50.7272 85.9412 49.8965 85.9412 48.8323C85.9412 48.1055 85.7076 47.5085 85.2404 47.0153C84.7731 46.5221 83.8906 46.0808 82.6187 45.6655L78.8549 44.4974C76.96 43.9004 75.5583 43.0179 74.7017 41.8498C73.8451 40.7077 73.4038 39.4357 73.4038 38.086C73.4038 36.9958 73.6375 36.0353 74.1047 35.2047C74.5719 34.3741 75.1949 33.6473 75.9736 33.0762C76.7523 32.4792 77.6349 32.0379 78.6732 31.7264C79.7115 31.4149 80.8017 31.2852 81.9438 31.2852C82.5148 31.2852 83.1119 31.3111 83.6829 31.389C84.2799 31.4669 84.8251 31.5707 85.3702 31.6745C85.8893 31.8043 86.3825 31.9341 86.8497 32.0898C87.3169 32.2456 87.6804 32.4013 87.9399 32.5571C88.3033 32.7647 88.5629 32.9724 88.7186 33.206C88.8744 33.4137 88.9523 33.6992 88.9523 34.0626V35.2826C88.9523 35.8277 88.7446 36.1132 88.3552 36.1132C88.1476 36.1132 87.8101 36.0094 87.3689 35.8017C85.8893 35.1268 84.228 34.7894 82.3851 34.7894C80.9055 34.7894 79.7374 35.023 78.9327 35.5162C78.1281 36.0094 77.7128 36.7621 77.7128 37.8264C77.7128 38.5532 77.9723 39.1762 78.4915 39.6694C79.0106 40.1626 79.971 40.6557 81.3468 41.097L85.0327 42.2651C86.9016 42.8621 88.2514 43.6927 89.0561 44.757C89.8608 45.8212 90.2501 47.0412 90.2501 48.391C90.2501 49.5072 90.0165 50.5195 89.5752 51.4021C89.108 52.2846 88.485 53.0633 87.6804 53.6863C86.8757 54.3352 85.9153 54.8025 84.7991 55.1399C83.631 55.5033 82.411 55.685 81.0872 55.685Z" fill="#252F3E"/>
<path fill-rule="evenodd" clip-rule="evenodd" d="M85.9931 68.3001C77.4531 74.6077 65.0456 77.9562 54.3771 77.9562C39.4257 77.9562 25.9539 72.4273 15.7786 63.2385C14.9739 62.5116 15.7007 61.5253 16.6612 62.0963C27.6671 68.4818 41.2427 72.3495 55.2856 72.3495C64.76 72.3495 75.1689 70.3767 84.7471 66.3274C86.1748 65.6784 87.3948 67.2618 85.9931 68.3001Z" fill="#FF9900"/>
<path fill-rule="evenodd" clip-rule="evenodd" d="M89.5492 64.2505C88.459 62.8488 82.3331 63.5756 79.5556 63.9131C78.725 64.0169 78.5952 63.2901 79.348 62.745C84.2279 59.3186 92.2488 60.305 93.1832 61.4471C94.1177 62.6152 92.9236 70.636 88.3552 74.4777C87.6543 75.0747 86.9794 74.7632 87.2909 73.9845C88.3292 71.4147 90.6394 65.6262 89.5492 64.2505Z" fill="#FF9900"/>
</g>
<defs>
<clipPath id="clip0_491_1906">
<rect width="78.9102" height="47.2423" fill="white" transform="translate(15 31)"/>
</clipPath>
</defs>
</svg>
