<svg width="108" height="108" viewBox="0 0 108 108" fill="none" xmlns="http://www.w3.org/2000/svg">
<g clip-path="url(#clip0_491_1953)">
<path d="M28.5936 60.7236C32.3687 60.0567 35.4868 59.5049 35.5226 59.4973L35.5877 59.4835L32.0236 55.2441C30.0634 52.9124 28.4595 50.9957 28.4595 50.9846C28.4595 50.9637 32.1398 40.8292 32.1604 40.7931C32.1674 40.7811 34.6719 45.105 38.2315 51.2747C41.5641 57.0508 44.3117 61.8133 44.3373 61.8579L44.3837 61.939L33.0567 61.9376L21.7298 61.9361L28.5936 60.7236ZM72.0312 59.6983C70.307 59.5878 69.3042 58.606 69.0385 56.7683C68.9678 56.2795 68.9675 56.2668 68.9603 53.0931L68.9533 50.0216H69.7164H70.4795L70.4855 52.9926C70.4909 55.6702 70.4943 55.9842 70.5199 56.1725C70.6238 56.937 70.8306 57.4511 71.1828 57.8201C71.4646 58.1154 71.7945 58.2883 72.2512 58.3801C72.4667 58.4234 73.0796 58.4235 73.2761 58.3803C73.7391 58.2784 74.1102 58.0769 74.4375 57.7497C74.8106 57.3767 75.0867 56.8475 75.2202 56.2491L75.2653 56.0474L75.2703 53.0513L75.2753 50.0551H76.0543H76.8334V54.7651V59.4751H76.0624H75.2913V58.7278C75.2913 58.2201 75.2858 57.9824 75.274 57.9863C75.2644 57.9895 75.2248 58.0501 75.186 58.121C74.9203 58.6055 74.4776 59.0487 73.9925 59.3156C73.411 59.6357 72.8279 59.7494 72.0312 59.6983ZM89.5318 59.6907C88.9232 59.645 88.2823 59.4357 87.7585 59.1117C86.6545 58.4288 86.0013 57.3031 85.81 55.754C85.7438 55.218 85.7359 54.4979 85.7911 54.0424C85.9145 53.0246 86.3145 52.0255 86.884 51.3122C87.03 51.1294 87.3612 50.7981 87.544 50.6522C88.0378 50.2579 88.6154 49.9822 89.2286 49.8481C89.5859 49.7699 90.215 49.7332 90.5946 49.7684C91.5482 49.8568 92.4222 50.3058 93.0162 51.0124C93.6197 51.7304 93.9514 52.7336 93.9938 53.9689C94.0004 54.1625 94.002 54.5019 93.9973 54.7232L93.9888 55.1255L90.6491 55.1297L87.3094 55.1339V55.283C87.3094 55.7367 87.4197 56.2534 87.6104 56.6931C87.7748 57.0722 88.0579 57.4862 88.2896 57.6866C88.7648 58.0974 89.3464 58.3433 89.9828 58.4024C90.2188 58.4244 90.8202 58.4013 91.0891 58.36C91.8563 58.242 92.5857 57.9411 93.1748 57.4995C93.2441 57.4475 93.3104 57.399 93.3222 57.3916C93.3394 57.3808 93.3434 57.5166 93.343 58.0872L93.3425 58.7962L93.1846 58.8939C92.5183 59.306 91.7549 59.5706 90.9466 59.6697C90.7054 59.6992 89.8203 59.7124 89.5318 59.6907ZM92.4384 53.7109C92.4384 52.9509 92.1181 52.1067 91.6649 51.672C91.3415 51.3617 90.9505 51.1721 90.4857 51.1001C90.2658 51.0661 89.8023 51.0792 89.5705 51.126C89.0803 51.2251 88.6749 51.4405 88.3214 51.7899C87.9492 52.1576 87.6702 52.6042 87.4948 53.1131C87.4317 53.2961 87.3579 53.5965 87.335 53.7636L87.3241 53.8432H89.8812H92.4384V53.7109ZM47.1354 59.4541C47.1393 59.4426 48.2734 56.4633 49.6557 52.8334L52.1688 46.2336L52.9762 46.2335L53.7837 46.2335L53.8507 46.4053C54.0554 46.9303 58.8818 59.4608 58.8818 59.4673C58.8818 59.4716 58.4952 59.475 58.0227 59.475L57.1637 59.4748L56.4681 57.6228L55.7725 55.7708L52.9717 55.7708L50.1708 55.7707L50.1465 55.8336C50.1331 55.8682 49.8359 56.7015 49.4861 57.6855L48.85 59.4745L47.9891 59.4748C47.3078 59.475 47.1298 59.4707 47.1354 59.4541ZM55.2613 54.3575C55.2613 54.3545 54.7931 53.0855 54.221 51.5373C53.1506 48.641 53.0908 48.4668 53.0062 48.0018C52.9665 47.7838 52.9465 47.7777 52.9229 47.9767C52.9061 48.1189 52.8331 48.4371 52.7769 48.6136C52.749 48.7012 52.267 50.0241 51.7058 51.5535C51.1445 53.0828 50.6854 54.3406 50.6854 54.3485C50.6854 54.3564 51.7149 54.3628 52.9733 54.3628C54.2317 54.3628 55.2613 54.3604 55.2613 54.3575ZM59.4014 59.2339V58.9927L62.1918 55.1566L64.9823 51.3206L62.4558 51.3122L59.9294 51.3038L59.925 50.6627L59.9206 50.0216H63.5748H67.229V50.2381V50.4547L64.4382 54.3116C62.9033 56.433 61.6474 58.1722 61.6474 58.1765C61.6474 58.1809 62.8882 58.1845 64.4047 58.1845H67.162V58.8298V59.4751H63.2817H59.4014V59.2339ZM79.8784 59.4639C79.8723 59.4578 79.8672 57.3307 79.8672 54.7372V50.0216H80.6299H81.3925V50.9937C81.3925 51.5284 81.399 51.9659 81.407 51.9659C81.4149 51.9659 81.452 51.8784 81.4895 51.7714C81.6609 51.2812 81.9583 50.8232 82.3414 50.4592C82.6865 50.1312 83.081 49.9351 83.5464 49.8601C83.6771 49.839 83.7878 49.835 84.0492 49.8418C84.3776 49.8503 84.5493 49.8743 84.749 49.9396L84.8119 49.9601V50.7518V51.5434L84.6317 51.4532C84.3134 51.2939 83.9994 51.2308 83.6218 51.2505C83.3761 51.2632 83.2148 51.2948 83.0184 51.3685C82.6142 51.5202 82.2864 51.7879 82.0573 52.1534C81.7257 52.6825 81.4892 53.3625 81.4194 53.9876C81.4069 54.0997 81.3995 55.0133 81.3966 56.8142L81.3922 59.4751H80.6409C80.2277 59.4751 79.8846 59.4701 79.8784 59.4639ZM15 59.4308C15 59.4248 16.6794 56.5096 18.732 52.9524L22.4639 46.4849L26.8131 42.8351C29.2051 40.8276 31.1687 39.1828 31.1766 39.1798C31.1844 39.1768 31.153 39.256 31.1066 39.3558C31.0603 39.4556 28.9351 44.0138 26.3841 49.4852L21.7457 59.4332L18.3729 59.4374C16.5178 59.4397 15 59.4368 15 59.4308Z" fill="#0089D6"/>
</g>
<defs>
<clipPath id="clip0_491_1953">
<rect width="79" height="22.7593" fill="white" transform="translate(15 39.1797)"/>
</clipPath>
</defs>
</svg>
