<svg width="108" height="108" viewBox="0 0 108 108" fill="none" xmlns="http://www.w3.org/2000/svg">
<path d="M85.381 47.6917C85.2012 47.5431 83.5718 46.3014 80.0749 46.3014C79.1703 46.3014 78.2339 46.3916 77.3292 46.5455C76.668 41.9183 72.8378 39.679 72.6844 39.5622L71.748 39.0157L71.1449 39.8912C70.3937 41.0693 69.8171 42.4012 69.4891 43.7596C68.8542 46.3916 69.2457 48.8697 70.5736 50.987C68.9759 51.8944 66.3837 52.1067 65.8388 52.1385H23.0246C21.9083 52.1385 21.0037 53.0459 21.0037 54.1656C20.9455 57.9172 21.575 61.6636 22.8712 65.203C24.3471 69.0714 26.5479 71.9475 29.3835 73.6986C32.5788 75.662 37.795 76.7817 43.6725 76.7817C46.3229 76.7817 48.9787 76.5376 51.6026 76.0547C55.2529 75.3914 58.7498 74.1178 61.9716 72.2765C64.6273 70.7323 67.0079 68.7689 69.0288 66.4712C72.4357 62.6294 74.4566 58.3364 75.9326 54.5264C76.1442 54.5264 76.3241 54.5264 76.5357 54.5264C80.2442 54.5264 82.5349 53.0459 83.7992 51.7724C84.6457 50.987 85.2752 50.0159 85.7302 48.9281L86 48.1427L85.381 47.6917ZM58.8821 50.8968H64.6114C64.8812 50.8968 65.1246 50.6845 65.1246 50.3821V45.2401C65.1246 44.9695 64.913 44.7254 64.6114 44.7254H58.8821C58.6123 44.7254 58.3689 44.9377 58.3689 45.2401V50.3821C58.4006 50.6845 58.6123 50.8968 58.8821 50.8968ZM50.8937 36.1714H56.6231C56.8929 36.1714 57.1363 35.9591 57.1363 35.6567V30.5147C57.1363 30.2441 56.8929 30 56.6231 30H50.8937C50.6239 30 50.3806 30.2123 50.3806 30.5147V35.6567C50.3806 35.9273 50.6186 36.1714 50.8937 36.1714ZM50.8937 43.5474H56.6231C56.8929 43.5474 57.1363 43.3033 57.1363 43.0326V37.8907C57.1363 37.6201 56.8929 37.376 56.6231 37.376H50.8937C50.6239 37.376 50.3806 37.5882 50.3806 37.8907V43.0326C50.3806 43.3086 50.6186 43.5474 50.8937 43.5474ZM42.9636 43.5474H48.693C48.9628 43.5474 49.2061 43.3033 49.2061 43.0326V37.8907C49.2061 37.6201 48.9945 37.376 48.693 37.376H42.9636C42.6938 37.376 42.4505 37.5882 42.4505 37.8907V43.0326C42.4505 43.3086 42.6621 43.5474 42.9636 43.5474ZM34.9118 43.5474H40.6412C40.911 43.5474 41.1543 43.3033 41.1543 43.0326V37.8907C41.1543 37.6201 40.9427 37.376 40.6412 37.376H34.9118C34.642 37.376 34.3987 37.5882 34.3987 37.8907V43.0326C34.4304 43.3086 34.642 43.5474 34.9118 43.5474ZM50.8937 50.8968H56.6231C56.8929 50.8968 57.1363 50.6845 57.1363 50.3821V45.2401C57.1363 44.9695 56.9247 44.7254 56.6231 44.7254H50.8937C50.6239 44.7254 50.3806 44.9377 50.3806 45.2401V50.3821C50.3806 50.6845 50.6186 50.8968 50.8937 50.8968ZM42.9636 50.8968H48.693C48.9628 50.8968 49.2061 50.6845 49.2061 50.3821V45.2401C49.2061 44.9695 48.9945 44.7254 48.693 44.7254H42.9636C42.6938 44.7254 42.4505 44.9377 42.4505 45.2401V50.3821C42.4505 50.6845 42.6621 50.8968 42.9636 50.8968ZM34.9118 50.8968H40.6412C40.911 50.8968 41.1543 50.6845 41.1543 50.3821V45.2401C41.1543 44.9695 40.9427 44.7254 40.6412 44.7254H34.9118C34.642 44.7254 34.3987 44.9377 34.3987 45.2401V50.3821C34.4304 50.6845 34.642 50.8968 34.9118 50.8968ZM27.0134 50.8968H32.7428C33.0126 50.8968 33.256 50.6845 33.256 50.3821V45.2401C33.256 44.9695 33.0444 44.7254 32.7428 44.7254H27.0134C26.7436 44.7254 26.5003 44.9377 26.5003 45.2401V50.3821C26.532 50.6845 26.7436 50.8968 27.0134 50.8968Z" fill="#0091E2"/>
</svg>
