<svg width="108" height="108" viewBox="0 0 108 108" fill="none" xmlns="http://www.w3.org/2000/svg">
<g clip-path="url(#clip0_491_935)">
<path d="M81 27.082H27.0806V81.0014H81V27.082Z" fill="#512BD4"/>
<path d="M36.6909 61.5311C36.3096 61.5311 35.9856 61.4041 35.7187 61.15C35.4518 60.8894 35.3184 60.5799 35.3184 60.2216C35.3184 59.8567 35.4518 59.5441 35.7187 59.2835C35.9856 59.0229 36.3096 58.8926 36.6909 58.8926C37.0785 58.8926 37.4057 59.0229 37.6726 59.2835C37.9458 59.5441 38.0824 59.8567 38.0824 60.2216C38.0824 60.5799 37.9458 60.8894 37.6726 61.15C37.4057 61.4041 37.0785 61.5311 36.6909 61.5311Z" fill="white"/>
<path d="M51.9314 61.3165H49.4532L42.9244 51.0163C42.7592 50.7557 42.6225 50.4853 42.5145 50.2052H42.4573C42.5081 50.5049 42.5336 51.1466 42.5336 52.1303V61.3165H40.3413V47.3027H42.9815L49.2912 57.3586C49.5581 57.7756 49.7297 58.0623 49.8059 58.2186H49.844C49.7805 57.8473 49.7487 57.2186 49.7487 56.3325V47.3027H51.9314V61.3165Z" fill="white"/>
<path d="M62.6067 61.3165H54.9341V47.3027H62.3018V49.2768H57.2026V53.2444H61.9015V55.2087H57.2026V59.3522H62.6067V61.3165Z" fill="white"/>
<path d="M73.5112 49.2768H69.5843V61.3165H67.3158V49.2768H63.3984V47.3027H73.5112V49.2768Z" fill="white"/>
</g>
<defs>
<clipPath id="clip0_491_935">
<rect width="53.9194" height="53.9194" fill="white" transform="translate(27.0806 27.082)"/>
</clipPath>
</defs>
</svg>
