<svg width="108" height="108" viewBox="0 0 108 108" fill="none" xmlns="http://www.w3.org/2000/svg">
<mask id="mask0_491_2318" style="mask-type:luminance" maskUnits="userSpaceOnUse" x="17" y="42" width="17" height="23">
<path d="M31.6262 47.8238C31.5771 47.5535 31.3314 47.3816 31.0612 47.4184C30.9629 47.4307 30.8646 47.4798 30.7909 47.5535L28.2361 50.1084L26.234 46.2884C26.1111 46.0427 25.8163 45.9567 25.5707 46.0796C25.4847 46.1287 25.411 46.2024 25.3619 46.2884L24.2687 48.3765L21.5173 43.2422C21.3945 43.0088 21.0874 42.9106 20.854 43.0457C20.7189 43.1194 20.6206 43.2545 20.5961 43.4019L17.9307 60.4261L25.0425 64.4181C25.4847 64.6637 26.0374 64.6637 26.4796 64.4181L33.6529 60.4261L31.6262 47.8238Z" fill="white"/>
</mask>
<g mask="url(#mask0_491_2318)">
<path d="M17.9304 60.4258L20.5958 43.4016C20.6327 43.1313 20.8906 42.9471 21.1608 42.9962C21.3082 43.0208 21.4434 43.119 21.517 43.2542L24.2684 48.3884L25.3616 46.3003C25.4845 46.0547 25.7792 45.9687 26.0249 46.0915C26.1109 46.1407 26.1846 46.2144 26.2337 46.3003L33.6526 60.4258H17.9304Z" fill="#FFA000"/>
<path opacity="0.12" d="M27.02 43.1074L14 42.002V65.5853L17.9306 60.4264L27.02 43.1074Z" fill="url(#paint0_linear_491_2318)"/>
<path d="M27.1304 53.7937L24.2684 48.377L17.9304 60.4266L27.1304 53.7937Z" fill="#F57C00"/>
<path opacity="0.2" d="M14 42.002H37.5833V65.5853H14V42.002Z" fill="url(#paint1_linear_491_2318)"/>
<path d="M33.6526 60.4273L31.6137 47.8126C31.5645 47.5424 31.3189 47.3705 31.0486 47.4073C30.9504 47.4196 30.8521 47.4687 30.7784 47.5424L17.9304 60.4273L25.0423 64.4192C25.4845 64.6649 26.0372 64.6649 26.4794 64.4192L33.6526 60.4273Z" fill="#FFCA28"/>
<path d="M31.626 47.8238C31.5769 47.5535 31.3312 47.3816 31.061 47.4184C30.9627 47.4307 30.8645 47.4798 30.7908 47.5535L28.2359 50.1084L26.2338 46.2884C26.111 46.0427 25.8162 45.9567 25.5705 46.0796C25.4845 46.1287 25.4108 46.2024 25.3617 46.2884L24.2685 48.3765L21.5171 43.2422C21.3943 43.0088 21.0872 42.9106 20.8538 43.0457C20.7187 43.1194 20.6205 43.2545 20.5959 43.4019L17.9305 60.4261H17.9182L17.9305 60.4384L18.0042 60.4752L28.2359 50.2312L30.7908 47.6764C30.9873 47.4798 31.2944 47.4798 31.4909 47.6764C31.5646 47.7501 31.6137 47.836 31.626 47.9466L33.6404 60.4384L33.665 60.4261L31.626 47.8238ZM17.9551 60.4015L20.5959 43.5247C20.6328 43.2545 20.8907 43.0702 21.1609 43.1194C21.3083 43.1439 21.4434 43.2422 21.5171 43.3773L24.2685 48.5116L25.3617 46.4235C25.4845 46.1778 25.7793 46.0919 26.025 46.2147C26.111 46.2638 26.1847 46.3375 26.2338 46.4235L28.1991 50.1575L17.9551 60.4015Z" fill="white" fill-opacity="0.2"/>
<path opacity="0.2" d="M26.4794 64.2961C26.0372 64.5417 25.4845 64.5417 25.0423 64.2961L17.9427 60.3164L17.9304 60.427L25.0423 64.4189C25.4845 64.6646 26.0372 64.6646 26.4794 64.4189L33.6526 60.427L33.6403 60.3164L26.4794 64.2961Z" fill="#A52714"/>
<path d="M31.6259 47.8238C31.5768 47.5535 31.3311 47.3816 31.0609 47.4184C30.9627 47.4307 30.8644 47.4798 30.7907 47.5535L28.2358 50.1084L26.2337 46.2884C26.1109 46.0427 25.8161 45.9567 25.5704 46.0796C25.4845 46.1287 25.4108 46.2024 25.3616 46.2884L24.2684 48.3765L21.517 43.2422C21.3942 43.0088 21.0871 42.9106 20.8538 43.0457C20.7187 43.1194 20.6204 43.2545 20.5958 43.4019L17.9304 60.4261L25.0423 64.4181C25.4845 64.6637 26.0372 64.6637 26.4794 64.4181L33.6526 60.4261L31.6259 47.8238Z" fill="url(#paint2_linear_491_2318)"/>
</g>
<g opacity="0.54">
<path d="M41.5141 59.9348H40.0647V48.6836H46.6361V50.0716H41.5141V53.7687H46.1448V55.1199H41.5264V59.9348H41.5141Z" fill="black"/>
<path d="M49.1294 50.3047C48.9329 50.5013 48.6872 50.5995 48.4047 50.5995C48.1222 50.5995 47.8766 50.5013 47.68 50.3047C47.4835 50.1082 47.3853 49.8625 47.3853 49.58C47.3853 49.2975 47.4835 49.0519 47.68 48.8553C47.8766 48.6588 48.1222 48.5605 48.4047 48.5605C48.6872 48.5605 48.9329 48.6588 49.1294 48.8553C49.326 49.0519 49.4242 49.2975 49.4242 49.58C49.4242 49.8625 49.326 50.0959 49.1294 50.3047ZM49.1294 59.9346H47.68V52.2332H49.1294V59.9346Z" fill="black"/>
<path d="M52.151 59.9345H50.7017V52.2331H52.0896V53.4859H52.151C52.2984 53.0683 52.5932 52.7244 53.06 52.4542C53.5145 52.1839 53.9566 52.0488 54.3866 52.0488C54.8165 52.0488 55.1727 52.1102 55.4675 52.2331L54.9147 53.5842C54.7305 53.5105 54.4725 53.4737 54.1409 53.4737C53.6127 53.4737 53.1583 53.6825 52.7529 54.1001C52.3476 54.5177 52.151 55.0582 52.151 55.7214V59.9345Z" fill="black"/>
<path d="M58.9559 60.1919C57.7891 60.1919 56.8433 59.7989 56.1186 59.025C55.3939 58.2512 55.0254 57.2686 55.0254 56.0894C55.0254 54.9717 55.3816 54.0013 56.0817 53.1906C56.7941 52.3799 57.6908 51.9746 58.7963 51.9746C59.9386 51.9746 60.8475 52.3431 61.5354 53.0924C62.2232 53.8416 62.5671 54.8365 62.5671 56.0771L62.5549 56.3474H56.4748C56.5116 57.1212 56.7819 57.7353 57.2486 58.1898C57.7276 58.6443 58.2804 58.8654 58.9191 58.8654C59.9509 58.8654 60.6633 58.4232 61.0318 57.5388L62.3215 58.0792C62.0758 58.6811 61.6582 59.1724 61.0809 59.5778C60.5036 59.9831 59.7912 60.1919 58.9559 60.1919ZM61.0318 55.1559C60.9949 54.7137 60.7984 54.2961 60.4299 53.903C60.0614 53.51 59.5087 53.3012 58.7717 53.3012C58.2312 53.3012 57.7768 53.4731 57.3837 53.8048C56.9907 54.1364 56.7204 54.5909 56.573 55.1559H61.0318Z" fill="black"/>
<path d="M67.6522 60.1927C67.0626 60.1927 66.5344 60.0699 66.0677 59.812C65.6009 59.5663 65.257 59.247 65.0236 58.8662H64.9622V59.9348H63.5742V48.6836H65.0236V52.2334L64.9622 53.302H65.0236C65.257 52.9212 65.6009 52.6141 66.0677 52.3562C66.5344 52.1105 67.0626 51.9754 67.6522 51.9754C68.6471 51.9754 69.5069 52.3685 70.2316 53.1546C70.9563 53.9407 71.3125 54.9111 71.3125 56.0779C71.3125 57.2448 70.9563 58.2152 70.2316 59.0013C69.5069 59.7997 68.6471 60.1927 67.6522 60.1927ZM67.4065 58.8662C68.0821 58.8662 68.6594 58.6082 69.1384 58.1046C69.6174 57.601 69.8631 56.9255 69.8631 56.0902C69.8631 55.255 69.6174 54.5794 69.1384 54.0758C68.6594 53.5722 68.0821 53.3143 67.4065 53.3143C66.7309 53.3143 66.1414 53.5599 65.6746 54.0635C65.2079 54.5671 64.9622 55.2427 64.9622 56.0902C64.9622 56.9378 65.1956 57.6133 65.6746 58.1169C66.1536 58.6205 66.7309 58.8662 67.4065 58.8662Z" fill="black"/>
<path d="M74.9116 60.1919C74.0886 60.1919 73.413 59.9585 72.8603 59.4795C72.3076 59.0128 72.0374 58.3863 72.0374 57.6125C72.0374 56.7773 72.3567 56.114 73.0077 55.6349C73.6587 55.1559 74.4571 54.9225 75.4152 54.9225C76.2627 54.9225 76.9628 55.0822 77.5033 55.3893V55.1682C77.5033 54.6032 77.3067 54.1487 76.926 53.8048C76.5329 53.4609 76.0662 53.2889 75.5012 53.2889C75.0835 53.2889 74.7028 53.3872 74.3588 53.5837C74.0149 53.7802 73.7815 54.0504 73.6587 54.4066L72.3321 53.8416C72.5164 53.3749 72.8603 52.9572 73.3885 52.5642C73.9166 52.1711 74.6045 51.9746 75.4643 51.9746C76.4469 51.9746 77.2699 52.2571 77.9209 52.8344C78.5719 53.4117 78.8913 54.2224 78.8913 55.2664V59.934H77.5033V58.8654H77.4419C76.8646 59.7497 76.017 60.1919 74.9116 60.1919ZM75.1449 58.8654C75.7468 58.8654 76.2873 58.6443 76.7663 58.2021C77.2576 57.7599 77.5033 57.2317 77.5033 56.6176C77.0979 56.2859 76.4838 56.114 75.6608 56.114C74.9607 56.114 74.4325 56.2614 74.0763 56.5684C73.7201 56.8755 73.5359 57.2317 73.5359 57.6371C73.5359 58.0178 73.6956 58.3126 74.0272 58.5337C74.3588 58.7548 74.7273 58.8654 75.1449 58.8654Z" fill="black"/>
<path d="M82.9077 60.1933C82.0479 60.1933 81.3355 59.9845 80.7827 59.5669C80.2177 59.1493 79.8124 58.6211 79.5544 57.9947L80.8442 57.4542C81.2495 58.4246 81.9496 58.9036 82.9323 58.9036C83.3867 58.9036 83.7552 58.8053 84.0377 58.6088C84.3202 58.4123 84.4676 58.1421 84.4676 57.8227C84.4676 57.3191 84.1114 56.9752 83.4113 56.8032L81.8514 56.4224C81.36 56.2996 80.8933 56.0539 80.4511 55.71C80.0089 55.3538 79.7878 54.8871 79.7878 54.2852C79.7878 53.6096 80.0949 53.0569 80.6968 52.627C81.2986 52.1971 82.011 51.9883 82.8463 51.9883C83.5218 51.9883 84.136 52.148 84.6642 52.455C85.2046 52.7621 85.5854 53.2043 85.8065 53.7816L84.5536 54.2975C84.2711 53.6219 83.6815 53.278 82.7972 53.278C82.3672 53.278 82.011 53.364 81.7162 53.5482C81.4215 53.7325 81.2741 53.9658 81.2741 54.2729C81.2741 54.7151 81.618 55.0099 82.2935 55.1696L83.8166 55.5258C84.5413 55.6977 85.0695 55.9802 85.4257 56.3856C85.7696 56.7909 85.9416 57.2577 85.9416 57.7736C85.9416 58.4614 85.6591 59.0387 85.0941 59.5055C84.529 59.9722 83.8044 60.1933 82.9077 60.1933Z" fill="black"/>
<path d="M90.4618 60.1919C89.2949 60.1919 88.3491 59.7989 87.6244 59.025C86.8997 58.2512 86.5312 57.2686 86.5312 56.0894C86.5312 54.9717 86.8875 54.0013 87.5876 53.1906C88.3 52.3799 89.1967 51.9746 90.3021 51.9746C91.4444 51.9746 92.3534 52.3431 93.0412 53.0924C93.7291 53.8416 94.073 54.8365 94.073 56.0771L94.0607 56.3474H87.9806C88.0175 57.1212 88.2877 57.7353 88.7545 58.1898C89.2335 58.6443 89.7862 58.8654 90.425 58.8654C91.4567 58.8654 92.1691 58.4232 92.5376 57.5388L93.8273 58.0792C93.5817 58.6811 93.1641 59.1724 92.5868 59.5778C92.0095 59.9831 91.297 60.1919 90.4618 60.1919ZM92.5376 55.1559C92.5008 54.7137 92.3042 54.2961 91.9358 53.903C91.5673 53.51 91.0145 53.3012 90.2776 53.3012C89.7371 53.3012 89.2826 53.4731 88.8896 53.8048C88.4965 54.1364 88.2263 54.5909 88.0789 55.1559H92.5376Z" fill="black"/>
</g>
<defs>
<linearGradient id="paint0_linear_491_2318" x1="20.9942" y1="54.5988" x2="20.0115" y2="54.0854" gradientUnits="userSpaceOnUse">
<stop stop-color="#A52714"/>
<stop offset="0.4" stop-color="#A52714" stop-opacity="0.5"/>
<stop offset="0.8" stop-color="#A52714" stop-opacity="0"/>
</linearGradient>
<linearGradient id="paint1_linear_491_2318" x1="25.1703" y1="53.1693" x2="24.7305" y2="52.7295" gradientUnits="userSpaceOnUse">
<stop stop-color="#A52714" stop-opacity="0.8"/>
<stop offset="0.5" stop-color="#A52714" stop-opacity="0.21"/>
<stop offset="1" stop-color="#A52714" stop-opacity="0"/>
</linearGradient>
<linearGradient id="paint2_linear_491_2318" x1="17.5071" y1="46.7886" x2="33.9279" y2="63.2094" gradientUnits="userSpaceOnUse">
<stop stop-color="white" stop-opacity="0.1"/>
<stop offset="1" stop-color="white" stop-opacity="0"/>
</linearGradient>
</defs>
</svg>
