<svg width="108" height="108" viewBox="0 0 108 108" fill="none" xmlns="http://www.w3.org/2000/svg">
<path d="M59.3821 25.0162L77.6651 24.9961L46.9912 55.6543L38.997 63.6038L29.9014 54.497L59.3821 25.0162ZM59.2119 52.3904C59.4492 52.077 59.8858 52.2314 60.2171 52.1912L77.6494 52.1956L61.7618 68.0676L52.6191 58.981L59.2119 52.3904Z" fill="#44D1FD"/>
<path d="M43.5054 68.0848L52.6189 58.9824L61.7615 68.0691L61.7996 68.1094L52.6211 77.2028L43.5054 68.0848Z" fill="#1FBCFD"/>
<path d="M52.6211 77.2027L61.7995 68.1094L77.6559 83.9814C71.6832 83.9948 65.7127 83.9769 59.7422 83.9903C59.4019 84.0664 59.1915 83.7553 58.9744 83.5627L52.6211 77.2027Z" fill="#08589C"/>
</svg>
