<svg width="108" height="108" viewBox="0 0 108 108" fill="none" xmlns="http://www.w3.org/2000/svg">
<g clip-path="url(#clip0_491_894)">
<path d="M21.9857 48.6962C21.8403 48.6962 21.804 48.6235 21.8767 48.5145L22.6399 47.5333C22.7125 47.4242 22.8943 47.3516 23.0396 47.3516H36.0138C36.1591 47.3516 36.1955 47.4606 36.1228 47.5696L35.505 48.5145C35.4323 48.6235 35.2506 48.7326 35.1416 48.7326L21.9857 48.6962Z" fill="#00ACD7"/>
<path d="M16.4979 52.04C16.3525 52.04 16.3162 51.9673 16.3889 51.8583L17.1521 50.877C17.2248 50.768 17.4065 50.6953 17.5518 50.6953H34.1238C34.2692 50.6953 34.3419 50.8043 34.3056 50.9134L34.0148 51.7856C33.9785 51.9309 33.8331 52.0036 33.6877 52.0036L16.4979 52.04Z" fill="#00ACD7"/>
<path d="M25.2928 55.3837C25.1475 55.3837 25.1111 55.2747 25.1838 55.1657L25.6926 54.2571C25.7653 54.1481 25.9106 54.0391 26.056 54.0391H33.3244C33.4698 54.0391 33.5425 54.1481 33.5425 54.2935L33.4698 55.1657C33.4698 55.311 33.3244 55.4201 33.2154 55.4201L25.2928 55.3837Z" fill="#00ACD7"/>
<path d="M63.016 48.0416C60.7264 48.6231 59.1637 49.0592 56.9105 49.6407C56.3653 49.7861 56.329 49.8224 55.8566 49.2773C55.3114 48.6595 54.9117 48.2597 54.1485 47.8963C51.8589 46.7697 49.6421 47.0967 47.5706 48.4414C45.0993 50.0405 43.8273 52.4027 43.8637 55.3464C43.9 58.2538 45.8988 60.6524 48.7698 61.0521C51.2411 61.3792 53.3126 60.507 54.948 58.6535C55.2751 58.2538 55.5658 57.8177 55.9292 57.3089C54.6209 57.3089 52.9855 57.3089 48.9152 57.3089C48.152 57.3089 47.9703 56.8364 48.2247 56.2186C48.6972 55.092 49.5694 53.2022 50.0782 52.2573C50.1872 52.0393 50.4416 51.6759 50.9867 51.6759C52.8402 51.6759 59.6725 51.6759 64.2152 51.6759C64.1426 52.6571 64.1426 53.6383 63.9972 54.6196C63.5974 57.2362 62.6162 59.6348 61.0171 61.7426C58.4005 65.1951 54.9843 67.3393 50.6596 67.9208C47.0981 68.3932 43.791 67.7027 40.8836 65.5222C38.1943 63.487 36.6679 60.7977 36.2682 57.4543C35.7957 53.493 36.9587 49.9314 39.3572 46.806C41.9375 43.4262 45.3537 41.282 49.533 40.5188C52.9492 39.901 56.22 40.3008 59.1637 42.2996C61.0898 43.5716 62.4708 45.316 63.3794 47.4238C63.5974 47.7509 63.4521 47.9326 63.016 48.0416Z" fill="#00ACD7"/>
<path d="M75.0453 68.1383C71.7381 68.0656 68.7217 67.1207 66.1778 64.9401C64.0336 63.0867 62.689 60.7245 62.2528 57.9261C61.5987 53.8195 62.7253 50.1852 65.1966 46.9508C67.8495 43.462 71.0476 41.6448 75.3724 40.8817C79.0793 40.2275 82.5681 40.5909 85.7299 42.7351C88.6009 44.6976 90.3817 47.3506 90.8541 50.8394C91.4719 55.7456 90.0546 59.7432 86.6748 63.1594C84.2762 65.5943 81.3325 67.1207 77.9526 67.8112C76.9714 67.9929 75.9902 68.0292 75.0453 68.1383ZM83.6947 53.456C83.6584 52.9836 83.6584 52.6202 83.5857 52.2567C82.9315 48.6589 79.6244 46.6237 76.1719 47.4232C72.7921 48.1864 70.6115 50.3306 69.812 53.7468C69.1579 56.5815 70.5389 59.4525 73.1555 60.6154C75.1543 61.4876 77.1531 61.3786 79.0793 60.3974C81.9503 58.9074 83.513 56.5815 83.6947 53.456Z" fill="#00ACD7"/>
</g>
<defs>
<clipPath id="clip0_491_894">
<rect width="74.6467" height="27.8744" fill="white" transform="translate(16.3525 40.2637)"/>
</clipPath>
</defs>
</svg>
