<svg width="108" height="108" viewBox="0 0 108 108" fill="none" xmlns="http://www.w3.org/2000/svg">
<path d="M60.2502 44.7585H61.815L66.2747 40.2988L66.4938 38.4053C63.939 36.1504 60.8515 34.5839 57.5229 33.854C54.1944 33.124 50.7347 33.2547 47.4707 34.2335C44.2067 35.2124 41.2462 37.0073 38.8687 39.4485C36.4912 41.8897 34.7753 44.8967 33.8831 48.1854C34.3799 47.9818 34.9303 47.9488 35.4479 48.0915L44.3673 46.6206C44.3673 46.6206 44.8211 45.8695 45.0558 45.9164C46.967 43.8175 49.6081 42.5285 52.4386 42.3132C55.2691 42.0979 58.0749 42.9727 60.2815 44.7585H60.2502Z" fill="#EA4335"/>
<path d="M72.6279 48.1863C71.6029 44.4114 69.4982 41.0178 66.5721 38.4219L60.3129 44.6811C61.6173 45.747 62.6628 47.0952 63.3703 48.624C64.0777 50.1529 64.4288 51.8224 64.397 53.5067V54.6177C65.1286 54.6177 65.853 54.7618 66.5288 55.0417C67.2047 55.3217 67.8188 55.732 68.3361 56.2493C68.8534 56.7666 69.2638 57.3807 69.5437 58.0566C69.8237 58.7325 69.9678 59.4569 69.9678 60.1884C69.9678 60.92 69.8237 61.6444 69.5437 62.3203C69.2638 62.9961 68.8534 63.6102 68.3361 64.1275C67.8188 64.6448 67.2047 65.0552 66.5288 65.3351C65.853 65.6151 65.1286 65.7592 64.397 65.7592H53.2555L52.1445 66.8858V73.5676L53.2555 74.6786H64.397C67.5082 74.7028 70.5446 73.725 73.057 71.8897C75.5694 70.0545 77.4244 67.4593 78.3475 64.4881C79.2706 61.5169 79.2129 58.3275 78.1828 55.3916C77.1528 52.4558 75.2051 49.9294 72.6279 48.1863Z" fill="#4285F4"/>
<path d="M42.0984 74.6155H53.2399V65.6961H42.0984C41.3046 65.6959 40.5201 65.5251 39.7981 65.1953L38.2333 65.6804L33.7423 70.1401L33.3511 71.7049C35.8695 73.6067 38.9426 74.6292 42.0984 74.6155Z" fill="#34A853"/>
<path d="M42.0984 45.6817C39.0796 45.6998 36.1418 46.6602 33.6954 48.4289C31.2489 50.1976 29.416 52.6863 28.4525 55.5473C27.4891 58.4083 27.4433 61.4988 28.3215 64.387C29.1998 67.2753 30.9582 69.8172 33.3511 71.6576L39.8138 65.195C38.9925 64.8239 38.2736 64.2592 37.7185 63.5491C37.1635 62.8391 36.789 62.0051 36.6272 61.1185C36.4654 60.232 36.5211 59.3194 36.7895 58.4591C37.0579 57.5988 37.5311 56.8164 38.1683 56.1792C38.8056 55.542 39.5879 55.0688 40.4482 54.8004C41.3085 54.532 42.2211 54.4763 43.1076 54.6381C43.9942 54.7999 44.8283 55.1744 45.5383 55.7294C46.2483 56.2844 46.813 57.0034 47.1841 57.8247L53.6468 51.362C52.2903 49.5887 50.542 48.1532 48.5386 47.1678C46.5352 46.1824 44.3311 45.6738 42.0984 45.6817Z" fill="#FBBC05"/>
</svg>
