<svg width="108" height="108" viewBox="0 0 108 108" fill="none" xmlns="http://www.w3.org/2000/svg">
<path d="M45.9197 71.4298C45.9197 71.4298 43.5138 72.8942 47.5933 73.3126C52.5094 73.9402 55.1245 73.8357 60.5637 72.7896C60.5637 72.7896 62.0281 73.731 64.0155 74.4633C51.7773 79.6933 36.2964 74.1494 45.9197 71.4298ZM44.3506 64.6308C44.3506 64.6308 41.7357 66.6182 45.815 67.0366C51.1497 67.5596 55.3337 67.6642 62.5511 66.1998C62.5511 66.1998 63.4925 67.2458 65.0615 67.7688C50.3129 72.1621 33.7859 68.1872 44.3506 64.6308ZM73.2203 76.5552C73.2203 76.5552 74.9985 78.0197 71.2329 79.1702C64.2247 81.2622 41.8401 81.8898 35.5641 79.1702C33.3675 78.2289 37.5515 76.869 38.9113 76.6598C40.2711 76.3461 41.0033 76.3461 41.0033 76.3461C38.5976 74.6724 24.9995 79.7978 34.0996 81.2622C59.0991 85.3416 79.7057 79.4841 73.2203 76.5552ZM47.0702 57.518C47.0702 57.518 35.6688 60.2376 42.9909 61.179C46.1289 61.5973 52.3003 61.4928 58.0533 61.0744C62.7603 60.656 67.4674 59.8192 67.4674 59.8192C67.4674 59.8192 65.7937 60.5514 64.6431 61.2836C53.0325 64.317 30.7526 62.9572 37.1332 59.8192C42.5724 57.2041 47.0702 57.518 47.0702 57.518ZM67.4674 68.9194C79.1826 62.8526 73.7434 56.995 69.9778 57.7272C69.0364 57.9364 68.618 58.1456 68.618 58.1456C68.618 58.1456 68.9318 57.518 69.6639 57.3088C77.0906 54.6938 82.9482 65.1538 67.2582 69.2332C67.2582 69.2332 67.3627 69.1286 67.4674 68.9194ZM48.2209 85.4463C59.5178 86.1785 76.7768 85.0279 77.1951 79.6933C77.1951 79.6933 76.3584 81.7853 67.8858 83.3542C58.2625 85.1325 46.3382 84.9233 39.3299 83.7726C39.3299 83.7726 40.7942 85.0279 48.2209 85.4463Z" fill="#4E7896"/>
<path d="M60.3546 23C60.3546 23 66.8398 29.5898 54.1832 39.5269C44.0369 47.581 51.882 52.1834 54.1832 57.4134C48.2209 52.0789 43.9323 47.3718 46.8611 42.9786C51.1498 36.4934 62.9696 33.3554 60.3546 23ZM57.0074 53.0203C60.0408 56.4721 56.1706 59.6102 56.1706 59.6102C56.1706 59.6102 63.911 55.6353 60.3546 50.7191C57.1119 46.0121 54.6016 43.7109 68.1996 35.8659C68.1996 35.8659 46.7566 41.2005 57.0074 53.0203Z" fill="#F58219"/>
</svg>
