<svg width="108" height="108" viewBox="0 0 108 108" fill="none" xmlns="http://www.w3.org/2000/svg">
<g clip-path="url(#clip0_491_2185)">
<path fill-rule="evenodd" clip-rule="evenodd" d="M76.3208 52.3642C76.3208 65.2474 66.1102 75.6914 53.5147 75.6914C40.9194 75.6914 30.7087 65.2474 30.7087 52.3642C30.7087 39.4807 40.9194 29.0365 53.5147 29.0365C66.1102 29.0365 76.3208 39.4807 76.3208 52.3642Z" fill="#D33833"/>
<path d="M31.6379 58.1426C31.6379 58.1426 29.9868 33.8161 52.4021 33.121L50.8384 30.5146L38.6752 34.598L35.1999 38.5945L32.1591 44.4156L30.4214 51.1923L30.9427 55.71" fill="#EF3D3A"/>
<path d="M37.8944 36.4524C33.893 40.5466 31.4169 46.1994 31.4169 52.453C31.4169 58.7053 33.893 64.3588 37.8944 68.4522C41.8977 72.5456 47.4148 75.0715 53.5143 75.0715C59.6138 75.0715 65.1314 72.5456 69.1343 68.4522C73.1354 64.3588 75.612 58.7053 75.612 52.453C75.612 46.1994 73.1354 40.5466 69.1343 36.4524C65.1314 32.3599 59.6138 29.834 53.5143 29.8335C47.4148 29.834 41.8977 32.3599 37.8944 36.4524ZM36.8815 69.4424C32.629 65.0934 30 59.0829 30 52.453C30 45.822 32.629 39.8121 36.8815 35.4628C41.1331 31.1127 47.0183 28.4163 53.5143 28.4171C60.0103 28.4163 65.8961 31.1127 70.1469 35.4628C74.3998 39.8121 77.0291 45.8225 77.0286 52.453C77.0291 59.0829 74.3998 65.0934 70.1469 69.4424C65.8961 73.7923 60.0103 76.4883 53.5143 76.4883C47.0183 76.4883 41.1331 73.7923 36.8815 69.4424Z" fill="#231F20"/>
<path fill-rule="evenodd" clip-rule="evenodd" d="M63.1147 52.4937L59.6393 53.015L54.9477 53.5363L51.9067 53.623L48.9529 53.5363L46.6939 52.8411L44.6956 50.6692L43.1318 46.2383L42.7843 45.2825L40.6991 44.5876L39.4828 42.5893L38.614 39.7222L39.5698 37.2026L41.8286 36.4207L43.6531 37.2897L44.522 39.201L45.5646 39.0271L45.912 38.5929L45.5646 36.5945L45.4775 34.0749L45.9988 30.5998L45.9785 28.6147L47.5627 26.0821L50.3429 24.0837L55.2083 21.9986L60.5948 22.7805L65.2864 26.1689L67.4585 29.644L68.8486 32.1636L69.196 38.419L68.1534 43.8057L66.2421 48.5841L64.4176 51.1037" fill="#F0D6B7"/>
<path fill-rule="evenodd" clip-rule="evenodd" d="M60.1608 67.5244L47.7367 68.0457V70.1308L48.7792 77.4288L48.2579 78.0371L39.57 75.083L38.9617 74.0404L38.0929 64.2231L36.0949 58.3151L35.6604 56.9251L42.6107 52.1468L44.7829 51.2778L46.6941 53.6236L48.3448 55.1006L50.2563 55.7087L51.125 55.9694L52.1676 60.4871L52.9495 61.4428L54.9479 60.7477L53.5576 63.4412L61.1163 67.0031L60.1608 67.5244Z" fill="#335061"/>
<path fill-rule="evenodd" clip-rule="evenodd" d="M39.5699 37.2028L41.8286 36.4209L43.6531 37.2899L44.5221 39.2012L45.5646 39.0273L45.8253 37.9848L45.304 35.9867L45.8253 31.2081L45.3907 28.6017L46.9546 26.7772L50.3429 24.084L49.3872 22.7807L44.6088 25.1265L42.6105 26.6904L41.4811 29.1229L39.7435 31.4687L39.2222 34.249L39.5699 37.2028Z" fill="#6D6B6D"/>
<path fill-rule="evenodd" clip-rule="evenodd" d="M43.1319 29.0371C43.1319 29.0371 44.4351 25.8226 49.6479 24.2587C54.8607 22.6949 49.9085 23.1291 49.9085 23.1291L44.2615 25.3013L42.0893 27.4732L41.1338 29.2109L43.1319 29.0371Z" fill="#DCD9D8"/>
<path fill-rule="evenodd" clip-rule="evenodd" d="M40.5254 36.595C40.5254 36.595 38.7009 30.5132 45.6514 29.6445L45.3907 28.602L40.6124 29.7316L39.2222 34.2493L39.5699 37.2031L40.5254 36.595Z" fill="#DCD9D8"/>
<path fill-rule="evenodd" clip-rule="evenodd" d="M43.3057 44.675L44.4432 43.5728C44.4432 43.5728 44.9567 43.6324 45.0434 44.2405C45.1302 44.8489 45.3908 50.3223 49.1266 53.2764C49.4674 53.5459 46.3466 52.8417 46.3466 52.8417L43.5663 48.4978" fill="#F7E4CD"/>
<path fill-rule="evenodd" clip-rule="evenodd" d="M59.2921 43.0254C59.2921 43.0254 59.4947 40.3919 60.2039 40.5944C60.9131 40.7969 60.9131 41.5061 60.9131 41.5061C60.9131 41.5061 59.1908 42.6204 59.2921 43.0254Z" fill="#F7E4CD"/>
<path d="M66.5028 33.3799C66.5028 33.3799 65.0708 33.6822 64.9389 34.9437C64.8071 36.2055 66.5028 35.2043 66.7634 35.1175" fill="#F7E4CD"/>
<path d="M55.9904 33.4684C55.9904 33.4684 54.0789 33.729 54.0789 34.9451C54.0789 36.1616 56.2511 36.0748 56.8592 35.5535" fill="#F7E4CD"/>
<path fill-rule="evenodd" clip-rule="evenodd" d="M44.1744 39.1153C44.1744 39.1153 40.8728 37.117 40.5254 39.0285C40.1779 40.9398 39.3958 42.33 41.0467 44.3281L39.9173 43.9807L38.8747 41.2875L38.5273 38.6811L40.5254 36.5957L42.7844 36.7695L44.0876 37.8121L44.1744 39.1153Z" fill="#F7E4CD"/>
<path fill-rule="evenodd" clip-rule="evenodd" d="M45.7382 33.6406C45.7382 33.6406 47.2152 25.9952 54.6871 24.5182C60.8385 23.3023 64.07 24.7788 65.2864 26.1688C65.2864 26.1688 59.8129 19.653 54.6 21.6511C49.3872 23.6494 45.5646 27.2984 45.6513 29.6439C45.7993 33.6391 45.7382 33.6406 45.7382 33.6406Z" fill="#F7E4CD"/>
<path fill-rule="evenodd" clip-rule="evenodd" d="M65.8947 27.0392C65.8947 27.0392 63.3754 26.9524 63.2883 29.2114C63.2883 29.2114 63.2881 29.5588 63.4619 29.9062C63.4619 29.9062 65.4605 27.6473 66.6767 28.8637" fill="#F7E4CD"/>
<path fill-rule="evenodd" clip-rule="evenodd" d="M54.8623 30.1406C54.8623 30.1406 54.4286 26.6733 51.4724 28.6891C49.5611 29.9923 49.735 31.8168 50.0824 32.1643C50.4299 32.512 50.3354 33.2118 50.5999 32.7314C50.8643 32.2511 50.7772 30.6872 51.7331 30.253C52.6888 29.8185 54.2555 29.3332 54.8623 30.1406Z" fill="#F7E4CD"/>
<path fill-rule="evenodd" clip-rule="evenodd" d="M46.6941 53.6243L38.5275 57.2733C38.5275 57.2733 41.9158 70.7399 40.178 74.9102L38.9617 74.4759L38.8748 69.3498L36.6162 59.6194L35.6604 56.9259L44.1745 51.192L46.6941 53.6243Z" fill="#49728B"/>
<path fill-rule="evenodd" clip-rule="evenodd" d="M47.5336 61.0727L48.6923 62.4864V67.6992H47.302C47.302 67.6992 47.1284 64.0502 47.1284 63.6157C47.1284 63.1813 47.302 61.6174 47.302 61.6174" fill="#49728B"/>
<path fill-rule="evenodd" clip-rule="evenodd" d="M47.5627 68.4811L43.6531 68.6547L44.7827 69.4367L47.5627 69.8711" fill="#49728B"/>
<path fill-rule="evenodd" clip-rule="evenodd" d="M60.9426 67.6106L64.1571 67.5238L64.939 75.5169L61.6375 75.9512L60.9426 67.6106Z" fill="#335061"/>
<path fill-rule="evenodd" clip-rule="evenodd" d="M61.8113 67.6113L66.6767 67.3507C66.6767 67.3507 68.6748 62.3116 68.6748 62.051C68.6748 61.7904 70.4125 54.7531 70.4125 54.7531L66.5028 50.6699L65.7209 49.9747L63.6358 52.0599V60.1398L61.8113 67.6113Z" fill="#335061"/>
<path fill-rule="evenodd" clip-rule="evenodd" d="M63.9833 67.0042L60.9426 67.6123L61.3769 70.0452C62.5062 70.5664 64.4178 69.1762 64.4178 69.1762" fill="#49728B"/>
<path fill-rule="evenodd" clip-rule="evenodd" d="M64.0703 51.7987L70.1519 56.3164L70.3257 54.2313L65.721 49.9742L64.0703 51.7987Z" fill="#49728B"/>
<path fill-rule="evenodd" clip-rule="evenodd" d="M50.5779 84.7269L48.7791 77.4279L47.8845 72.0423L47.7366 68.0448L55.8777 67.6114L60.9426 67.6106L60.4821 76.7339L61.264 83.7712L61.1772 85.0744L54.5745 85.5957L50.5779 84.7269Z" fill="white"/>
<path fill-rule="evenodd" clip-rule="evenodd" d="M59.8131 67.5244C59.8131 67.5244 59.3788 76.5601 60.682 82.9891C60.682 82.9891 58.0756 84.64 54.2527 85.0742L61.5508 84.8136L62.4195 84.2923L61.3769 70.044L61.1163 67.0029" fill="#DCD9D8"/>
<path fill-rule="evenodd" clip-rule="evenodd" d="M65.087 74.8242L68.4753 73.8685L74.9043 73.521L75.8601 70.5672L74.1224 65.4411L72.1243 65.1805L69.344 66.0492L66.6766 67.3516L65.2605 67.0918L64.157 67.5254" fill="white"/>
<path fill-rule="evenodd" clip-rule="evenodd" d="M65.0259 73.0857C65.0259 73.0857 67.2846 72.0433 67.6323 72.1302L66.6768 67.3515L67.8061 66.9173C67.8061 66.9173 68.5881 71.435 68.5881 71.9563C68.5881 71.9563 73.4532 72.2169 73.8877 72.2169C73.8877 72.2169 74.9303 70.2186 74.6696 68.1335L75.6254 70.9137L75.7122 72.4775L74.3222 74.5627L72.7583 74.9102L70.1519 74.8233L69.2832 73.694L66.2423 74.1282L65.2865 74.4759" fill="#DCD9D8"/>
<path d="M61.6118 66.918L59.7005 62.0525L57.7021 59.1855C57.7021 59.1855 58.1364 57.9691 58.7447 57.9691C59.3531 57.9691 60.7431 57.9691 60.7431 57.9691L62.6543 58.6642L62.4808 61.8787L61.6118 66.918Z" fill="white"/>
<path fill-rule="evenodd" clip-rule="evenodd" d="M61.9851 65.2658C61.9851 65.2658 59.5523 60.5744 59.5523 59.8794C59.5523 59.8794 59.9865 58.8368 60.5948 59.0974C61.2032 59.3581 62.5064 60.053 62.5064 60.053V58.4023L59.5523 57.794L57.5542 58.0546L60.9425 66.0477L61.6374 66.1348" fill="#DCD9D8"/>
<path d="M51.36 53.7981L48.9531 53.5365L46.6941 52.8413V53.6233L47.7979 54.8404L51.273 56.4043" fill="white"/>
<path fill-rule="evenodd" clip-rule="evenodd" d="M47.4762 54.0582C47.4762 54.0582 50.1697 55.1879 51.0385 54.9272L51.1249 55.9688L48.6927 55.4485L47.2156 54.4059L47.4762 54.0582Z" fill="#DCD9D8"/>
<path fill-rule="evenodd" clip-rule="evenodd" d="M65.0777 58.2637C63.6035 58.2204 62.2716 58.0453 61.1055 57.7163C61.1847 57.2383 61.0364 56.7692 61.1555 56.4248C61.4806 56.1908 62.0253 56.1944 62.5166 56.1394C62.0918 55.9307 61.4949 55.848 61.0046 55.9687C60.9932 55.6369 60.8443 55.4313 60.7542 55.1717C61.583 54.8759 63.5396 52.9364 64.6403 53.5786C65.1647 53.8841 65.3876 55.6288 65.4282 56.4772C65.4621 57.181 65.3644 57.891 65.0777 58.2637Z" fill="#D33833"/>
<path d="M65.0777 58.2637C63.6035 58.2204 62.2716 58.0453 61.1055 57.7163C61.1847 57.2383 61.0364 56.7692 61.1555 56.4248C61.4806 56.1908 62.0253 56.1944 62.5166 56.1394C62.0918 55.9307 61.4949 55.848 61.0046 55.9687C60.9932 55.6369 60.8443 55.4313 60.7542 55.1717C61.583 54.8759 63.5396 52.9364 64.6403 53.5786C65.1647 53.8841 65.3876 55.6288 65.4282 56.4772C65.4621 57.181 65.3644 57.891 65.0777 58.2637Z" stroke="#D33833" stroke-width="2.5"/>
<path fill-rule="evenodd" clip-rule="evenodd" d="M58.0282 55.8552C58.0243 55.9668 58.0196 56.0791 58.0151 56.1917C57.5549 56.4941 56.8118 56.4904 56.3066 56.7446C57.0513 56.7771 57.6375 56.9565 58.1447 57.2093C58.1335 57.4902 58.1228 57.771 58.1118 58.0519C57.2681 58.6295 56.4974 59.4896 55.5041 60.0313C55.0344 60.2874 53.386 60.9466 52.8863 60.8301C52.6036 60.7644 52.5782 60.4136 52.4651 60.0829C52.2244 59.3747 51.67 58.2474 51.6216 57.1814C51.56 55.8349 51.4241 53.5783 52.8752 53.8556C54.0458 54.079 55.4073 54.6182 56.3137 55.1135C56.8675 55.4163 57.1879 55.7906 58.0282 55.8552Z" fill="#D33833"/>
<path d="M58.0282 55.8552C58.0243 55.9668 58.0196 56.0791 58.0151 56.1917C57.5549 56.4941 56.8118 56.4904 56.3066 56.7446C57.0513 56.7771 57.6375 56.9565 58.1447 57.2093C58.1335 57.4902 58.1228 57.771 58.1118 58.0519C57.2681 58.6295 56.4974 59.4896 55.5041 60.0313C55.0344 60.2874 53.386 60.9466 52.8863 60.8301C52.6036 60.7644 52.5782 60.4136 52.4651 60.0829C52.2244 59.3747 51.67 58.2474 51.6216 57.1814C51.56 55.8349 51.4241 53.5783 52.8752 53.8556C54.0458 54.079 55.4073 54.6182 56.3137 55.1135C56.8675 55.4163 57.1879 55.7906 58.0282 55.8552Z" stroke="#D33833" stroke-width="2.5"/>
<path fill-rule="evenodd" clip-rule="evenodd" d="M58.866 57.4608C58.7373 56.7273 58.5885 56.518 58.6461 55.8782C60.6022 54.5739 60.9694 58.1184 58.866 57.4608Z" fill="#D33833"/>
<path d="M58.866 57.4608C58.7373 56.7273 58.5885 56.518 58.6461 55.8782C60.6022 54.5739 60.9694 58.1184 58.866 57.4608Z" stroke="#D33833" stroke-width="2.5"/>
<path fill-rule="evenodd" clip-rule="evenodd" d="M61.6983 58.0547C61.6983 58.0547 61.09 57.1857 61.5245 56.9251C61.959 56.6644 62.3935 56.9253 62.6541 56.4908C62.9148 56.0563 62.6541 55.7957 62.7409 55.2744C62.8277 54.7531 63.2625 54.6661 63.6967 54.5793C64.1309 54.4925 65.3476 54.3187 65.5212 54.7531L64.9999 53.1893L63.9573 52.8419L60.6558 54.7531L60.4819 55.7089V57.6202" fill="#EF3D3A"/>
<path fill-rule="evenodd" clip-rule="evenodd" d="M52.5761 60.9219C52.4717 59.566 52.3612 58.212 52.2383 56.8574C52.0545 54.8348 52.7242 55.1877 54.4774 55.1877C54.7452 55.1877 56.1262 55.507 56.225 55.709C56.6988 56.6768 55.4326 56.4618 56.7708 57.1915C57.9004 57.8074 59.8959 56.8175 59.4395 55.4484C59.184 55.1439 58.1086 55.3535 57.7231 55.1536C57.0444 54.8017 56.3657 54.4499 55.6869 54.098C54.8234 53.6499 52.8275 52.9968 51.9068 53.6228C49.574 55.2094 52.0541 59.1735 52.8863 60.8285" fill="#EF3D3A"/>
<path fill-rule="evenodd" clip-rule="evenodd" d="M54.8623 30.1416C52.4944 29.5901 51.3177 31.1326 50.5999 32.7324C49.959 32.5771 50.214 31.7055 50.3759 31.2614C50.7998 30.0958 52.5079 28.5442 53.9036 28.7545C54.5042 28.8449 55.3169 29.3941 54.8623 30.1416Z" fill="#231F20"/>
<path fill-rule="evenodd" clip-rule="evenodd" d="M66.3999 32.8368C66.4372 32.8384 66.475 32.8397 66.5123 32.8412C67.0474 33.9529 67.5105 35.1305 68.1856 36.1118C67.7334 37.165 64.7613 38.0971 64.8072 36.2059C65.4499 35.9249 66.5595 36.1485 67.1292 35.7896C66.7998 34.8855 66.3244 34.1158 66.3999 32.8368Z" fill="#231F20"/>
<path fill-rule="evenodd" clip-rule="evenodd" d="M56.0746 32.8664C56.5823 33.7972 56.7475 34.7751 57.4693 35.4786C57.7943 35.7953 58.4263 36.1813 58.113 37.062C58.0398 37.2697 57.5047 37.7329 57.1958 37.8238C56.0675 38.1569 53.4384 37.8926 54.3287 36.486C55.2619 36.5295 56.5161 37.0919 57.2136 36.4145C56.6779 35.5583 55.7231 33.8644 56.0746 32.8664Z" fill="#231F20"/>
<path fill-rule="evenodd" clip-rule="evenodd" d="M65.9765 42.3261C64.2776 43.4174 62.3833 44.6041 59.5996 44.3289C59.0048 43.8118 58.7781 42.661 59.3559 41.901C59.6567 42.4181 59.4677 43.3692 60.306 43.5123C61.8854 43.7826 63.7237 42.5461 64.8599 42.1139C65.5644 40.9262 64.7992 40.4894 64.1645 39.7249C62.8652 38.1587 61.1223 36.2174 61.1856 33.8727C61.7108 33.4919 61.7562 34.4539 61.8315 34.6291C62.5099 36.2169 64.2174 38.2476 65.4635 39.6066C65.7695 39.9412 66.2733 40.2623 66.3294 40.4836C66.491 41.1271 65.909 41.8981 65.9765 42.3261Z" fill="#231F20"/>
<path fill-rule="evenodd" clip-rule="evenodd" d="M43.5799 41.178C43.0474 40.874 42.9206 39.5354 42.2955 39.4973C41.4021 39.4431 41.565 41.234 41.5685 42.2812C40.9536 41.723 40.8454 40.004 41.2972 39.1212C40.7823 38.8684 40.5524 39.4001 40.2668 39.5875C40.6339 36.9212 44.1673 38.3508 43.5799 41.178Z" fill="#231F20"/>
<path fill-rule="evenodd" clip-rule="evenodd" d="M67.0579 43.4354C66.2671 44.9406 65.1485 46.5983 62.828 46.6465C62.7808 46.1604 62.7446 45.4207 62.8306 45.128C64.6045 44.9575 65.6997 44.0547 67.0579 43.4354Z" fill="#231F20"/>
<path fill-rule="evenodd" clip-rule="evenodd" d="M55.9407 44.4122C57.4207 45.1905 60.1408 45.2741 62.1524 45.2152C62.2603 45.656 62.2577 46.2005 62.2619 46.7379C59.676 46.8669 56.6187 46.227 55.9407 44.4122Z" fill="#231F20"/>
<path fill-rule="evenodd" clip-rule="evenodd" d="M55.6595 45.8628C56.6829 48.4325 60.2005 48.1367 63.1669 48.0658C63.0363 48.3994 62.7533 48.7935 62.4014 48.9361C61.4508 49.3228 58.829 49.6163 57.5094 48.9155C56.6725 48.4705 56.1348 47.4653 55.6762 46.8759C55.4548 46.5913 54.3522 45.8644 55.6595 45.8628Z" fill="#231F20"/>
<path fill-rule="evenodd" clip-rule="evenodd" d="M65.8528 60.0373C64.6517 62.0943 63.5026 64.2071 62.0776 66.0215C62.675 64.265 62.9307 61.3251 63.0209 59.0839C64.2707 58.4991 65.3409 59.2156 65.8528 60.0373Z" fill="#81B0C4"/>
<path fill-rule="evenodd" clip-rule="evenodd" d="M72.3156 67.4317C70.971 67.7009 70.0262 69.0077 68.7144 68.9239C69.4353 67.9076 70.6986 67.4791 72.3156 67.4317Z" fill="#231F20"/>
<path fill-rule="evenodd" clip-rule="evenodd" d="M72.909 69.5347C71.813 69.6504 70.5257 69.8279 69.4141 69.7365C69.9403 68.9326 71.9678 69.21 72.909 69.5347Z" fill="#231F20"/>
<path fill-rule="evenodd" clip-rule="evenodd" d="M73.2886 71.3493C72.0568 71.376 70.5258 71.3515 69.355 71.2532C70.0475 70.5094 72.4897 70.9772 73.2886 71.3493Z" fill="#231F20"/>
<path fill-rule="evenodd" clip-rule="evenodd" d="M63.5351 76.3148C63.7119 77.8618 64.3251 79.4292 64.2483 81.1234C63.5672 81.3531 63.176 81.554 62.2635 81.5527C62.1991 80.1129 62.0065 77.9118 62.0641 76.5393C62.5129 76.569 63.1747 76.2186 63.5351 76.3148Z" fill="#DCD9D8"/>
<path fill-rule="evenodd" clip-rule="evenodd" d="M61.5493 53.5149C60.9308 53.9187 60.4041 54.4227 59.81 54.8538C58.4928 54.919 57.7739 54.7626 56.8062 54.0062C56.8221 53.9455 56.9193 53.9726 56.9229 53.8981C58.333 54.5265 60.1254 53.6421 61.5493 53.5149Z" fill="#F0D6B7"/>
<path fill-rule="evenodd" clip-rule="evenodd" d="M54.147 63.1272C54.5344 61.4484 56.0524 60.5789 57.4309 59.6544C58.8538 61.4602 59.7191 63.7824 60.672 66.0234C58.4206 65.3448 56.1202 64.2435 54.147 63.1272Z" fill="#81B0C4"/>
<path fill-rule="evenodd" clip-rule="evenodd" d="M62.064 76.539C62.0064 77.9115 62.199 80.1126 62.2634 81.5525C63.1759 81.5537 63.5671 81.3528 64.2482 81.1231C64.3251 79.429 63.7118 77.8616 63.5351 76.3146C63.1746 76.2184 62.5128 76.5687 62.064 76.539ZM47.8554 68.7331C48.4571 74.2647 49.3286 78.9147 50.9271 83.813C54.4747 84.8902 58.7515 84.9841 61.8873 84.0121C61.3115 81.2474 61.5631 77.8816 61.2266 74.9314C60.973 72.7139 61.1023 70.4827 60.7546 68.2204C56.9549 67.4299 51.5843 68.0356 47.8554 68.7331ZM61.653 68.2551C61.6209 70.6308 61.7593 72.9742 61.9407 75.3529C62.853 75.2159 63.472 75.1245 64.3196 74.9387C64.0444 72.6487 64.0783 70.0719 63.5176 68.0463C62.8697 68.0525 62.2991 68.0387 61.653 68.2551ZM66.2807 67.8722C65.8478 67.7729 65.3437 67.8683 64.93 67.8763C65.1245 69.8129 65.5962 71.9499 65.7623 73.9827C66.4131 74.0029 66.7608 73.696 67.2961 73.5927C67.3248 71.8084 67.1403 69.35 66.2807 67.8722ZM73.2878 74.2743C74.6444 73.9448 75.4975 72.2832 75.118 70.5768C74.8633 69.43 74.4098 67.2705 73.9245 66.5369C73.5659 65.9942 72.5934 65.2838 71.817 65.781C70.5539 66.5898 68.3288 66.8246 67.4077 67.8036C67.8696 69.3414 68.0129 71.4536 68.2034 73.4021C69.7814 73.5005 71.7229 72.9679 73.0352 73.5331C72.1191 73.8298 70.9303 73.8322 70.1387 74.2647C70.7856 74.5772 72.3002 74.514 73.2878 74.2743ZM60.6719 66.0239C59.719 63.7829 58.8537 61.4607 57.4309 59.6549C56.0523 60.5794 54.5343 61.4489 54.1469 63.1277C56.1201 64.244 58.4205 65.3453 60.6719 66.0239ZM63.0208 59.0844C62.9307 61.3256 62.675 64.2654 62.0776 66.0219C63.5025 64.2075 64.6517 62.0948 65.8527 60.0377C65.3408 59.216 64.2706 58.4995 63.0208 59.0844ZM60.3581 58.1382C59.8183 58.0801 59.3601 58.7588 58.6582 58.4653C58.4974 58.6431 58.3512 58.8357 58.1872 59.0093C59.7375 60.8776 60.442 63.5283 61.6394 65.7239C62.2819 63.6148 62.2079 61.3042 62.3494 59.0023C61.4666 59.0583 60.9769 58.2039 60.3581 58.1382ZM58.646 55.8785C58.5884 56.5183 58.7372 56.7276 58.8659 57.4611C60.9693 58.1187 60.6021 54.5742 58.646 55.8785ZM56.3135 55.1127C55.4072 54.6175 54.0456 54.0782 52.875 53.8548C51.4239 53.5773 51.5599 55.8342 51.6214 57.1806C51.6698 58.2467 52.2242 59.3739 52.465 60.0821C52.578 60.4128 52.6034 60.7637 52.8862 60.8293C53.3859 60.9458 55.0342 60.2867 55.5039 60.0305C56.4972 59.4889 57.268 58.6288 58.1117 58.0512C58.1226 57.7702 58.1333 57.4895 58.1445 57.2085C57.6373 56.9557 57.0511 56.7764 56.3064 56.7438C56.8116 56.4897 57.5547 56.4933 58.015 56.191C58.0194 56.0784 58.0241 55.966 58.028 55.8545C57.1877 55.7898 56.8673 55.4156 56.3135 55.1127ZM47.6566 53.5402C46.9044 54.3039 49.7664 55.3449 50.6776 55.401C50.6725 54.9177 50.953 54.4621 50.8965 54.1155C49.8143 53.9255 48.3919 54.0508 47.6566 53.5402ZM56.9229 53.8989C56.9192 53.9734 56.822 53.9463 56.8061 54.0071C57.7739 54.7634 58.4927 54.9198 59.81 54.8547C60.404 54.4236 60.9307 53.9195 61.5493 53.5158C60.1254 53.6429 58.3329 54.5273 56.9229 53.8989ZM65.4281 56.4779C65.3875 55.6296 65.1646 53.8848 64.6402 53.5793C63.5395 52.9369 61.5829 54.8766 60.754 55.1724C60.8442 55.432 60.993 55.6376 61.0045 55.9694C61.4948 55.8488 62.0916 55.9314 62.5165 56.1402C62.0252 56.1951 61.4804 56.1915 61.1554 56.4256C61.0363 56.7699 61.1846 57.239 61.1054 57.717C62.2715 58.046 63.6034 58.2211 65.0776 58.2644C65.3643 57.8917 65.462 57.1817 65.4281 56.4779ZM46.3903 54.2789C46.1541 54.1105 44.5561 52.0314 44.3372 52.1177C41.4457 53.258 38.7421 55.2297 36.326 57.0946C38.6296 62.0375 39.5594 68.0932 39.7237 73.9299C42.3625 75.1641 44.6803 76.9433 48.2611 77.1291C47.8467 74.1974 47.4685 71.5818 47.2333 68.8217C46.3336 68.4424 45.0428 68.8389 44.2008 68.7041C44.1936 67.6894 45.4867 68.2598 45.5944 67.5774C45.6756 67.0613 44.8829 67.0222 45.141 66.2095C45.7993 66.4488 46.1449 66.9773 46.8469 67.1758C47.4883 65.7725 46.8379 63.2896 46.9304 62.1167C46.9479 61.8964 47.0403 60.8966 47.5336 61.0721C47.9702 61.2273 47.5087 63.7311 47.5565 64.8412C47.6001 65.8639 47.433 66.8535 47.8472 67.4956C51.3073 67.0246 54.8234 66.7201 58.5673 66.6174C57.7436 66.264 56.7652 65.9296 55.6924 65.3249C55.1109 64.9971 53.2777 64.3149 53.1099 63.7626C52.8422 62.8824 53.8124 62.4136 53.9784 61.659C52.2318 62.6116 51.891 60.7459 51.4779 59.4242C51.1035 58.2271 50.8904 57.3328 50.7986 56.6424C49.294 55.9251 47.6853 55.1987 46.3903 54.2789ZM63.9 52.3692C66.3091 51.201 66.7433 56.7352 65.799 58.518C65.945 59.0497 66.447 59.2533 66.6518 59.7313C65.3074 62.1396 63.8142 64.3876 62.4425 66.7676C63.4629 66.1324 64.9204 66.654 66.1212 66.1785C66.5601 66.0049 66.8778 65.0001 67.2101 64.1963C68.1242 61.9848 69.0839 59.1967 69.5108 57.0863C69.6073 56.6054 69.87 55.5576 69.8111 55.1296C69.706 54.3634 68.6663 53.7952 68.1375 53.3213C67.1632 52.4461 66.5497 51.6759 65.5334 50.8575C65.1213 51.4658 64.237 51.8745 63.9 52.3692ZM40.8807 31.0049C39.7327 32.268 39.973 34.6346 40.112 36.3184C42.1869 35.0131 44.941 36.4216 44.915 38.6417C45.9056 38.6154 45.2851 37.4044 45.1059 36.6243C44.5203 34.0763 46.0925 31.308 45.1772 28.9779C43.4 29.1127 41.94 29.8385 40.8807 31.0049ZM49.0944 23.6741C46.4957 24.4107 43.165 26.299 42.0971 28.6336C42.924 28.5134 43.4981 28.0964 44.3138 28.0448C44.6221 28.0247 45.026 28.1741 45.3803 28.086C46.0864 27.9108 46.6823 26.3277 47.215 25.7386C47.7342 25.1634 48.3583 24.9176 48.7854 24.3932C49.0598 24.2608 49.4655 24.2699 49.4811 23.8579C49.3622 23.7307 49.237 23.6337 49.0944 23.6741ZM62.6226 24.3669C59.9252 22.845 55.3595 21.7003 52.4902 23.1307C50.175 24.285 47.0454 26.195 45.9784 28.6153C46.9752 30.951 45.6832 33.0911 45.6007 35.4624C45.5569 36.7242 46.1948 37.8256 46.2437 39.1992C45.9026 39.762 44.8605 39.8313 44.1392 39.7927C43.8964 38.5776 43.4713 37.2118 42.22 37.0747C40.4495 36.8811 39.1549 38.3464 39.0745 39.8777C38.9793 41.6785 40.4576 44.6631 42.5529 44.4558C43.3624 44.3758 43.5612 43.5645 44.4431 43.5728C44.9211 44.5265 43.7058 44.826 43.5807 45.5081C43.5482 45.6842 43.6815 46.3729 43.7591 46.6958C44.1397 48.2683 44.9881 50.3033 45.8232 51.5005C46.8831 53.019 48.9653 53.2478 51.2055 53.3966C51.6056 52.5347 53.0796 52.6056 54.04 52.831C52.889 52.3752 51.819 51.2701 50.9321 50.2919C49.9135 49.1695 48.8817 47.9656 48.8295 46.4988C50.7545 49.1693 52.3448 51.5015 55.8452 52.6762C58.4938 53.5645 61.587 52.2691 63.6221 50.84C64.4666 50.246 64.9707 49.3035 65.571 48.4408C67.8169 45.2101 68.8649 40.5989 68.6345 36.1294C68.5397 34.2861 68.5438 32.4491 67.9253 31.209C67.2789 29.9123 65.0927 28.7522 63.8129 29.9251C63.5757 28.6641 64.8771 27.8843 66.4058 28.338C65.3158 26.9313 64.1718 25.2411 62.6226 24.3669ZM67.648 65.9567C69.7558 64.9089 73.6941 63.1363 75.0156 65.9606C75.5032 67.0017 76.0753 68.7615 76.3279 69.8361C76.6847 71.3522 75.9411 74.5389 74.3827 75.0476C73.0063 75.4969 71.4002 75.4696 69.7423 75.1365C69.547 74.9741 69.3297 74.6911 69.1777 74.396C67.9939 74.3501 66.8854 74.4596 65.9502 74.9462C66.0388 75.8217 65.4466 75.9622 64.8915 76.1425C64.4799 77.7744 65.7148 79.9055 65.4193 81.3935C65.2084 82.4535 63.9042 82.6175 62.9455 82.8158C62.9142 83.4049 62.9875 83.8966 63.0529 84.395C62.8337 85.2027 61.8506 85.6625 60.919 85.7751C57.8541 86.1436 53.2006 86.3092 50.2525 85.2491C49.4299 83.2313 48.7819 80.7771 48.0967 78.4729C45.2215 78.78 42.896 77.2323 40.7038 76.2184C39.9448 75.8665 38.8948 75.6727 38.6113 75.0685C38.3364 74.4836 38.4488 73.3625 38.3806 72.3036C38.207 69.5989 38.0584 66.9901 37.3442 64.2208C37.0235 62.9781 36.4645 61.8816 36.0746 60.6842C35.7141 59.5744 35.0844 58.2029 34.9202 57.0962C34.6767 55.456 36.2212 55.3647 37.2088 54.654C38.7354 53.5548 39.9338 52.947 41.5872 51.955C42.077 51.6613 43.5538 50.9177 43.7218 50.5752C44.0557 49.8962 43.1486 48.9389 42.906 48.4067C42.5224 47.565 42.3223 46.8501 42.2673 46.0197C40.8803 45.8005 39.8289 44.975 39.1938 44.0443C38.1432 42.5039 37.4146 39.654 38.3236 37.4863C38.3949 37.3156 38.7504 36.9799 38.8028 36.7177C38.9063 36.2013 38.6082 35.5148 38.5896 34.9656C38.4941 32.1481 39.0664 29.7205 40.9631 28.8708C41.7331 25.8033 44.4891 24.7834 47.0856 23.2589C48.0563 22.6891 49.1262 22.325 50.2312 21.9184C54.1951 20.4596 60.2768 20.7343 63.5666 23.2224C64.9616 24.2775 67.1914 26.5052 67.9889 28.118C70.0954 32.3761 69.9458 39.4924 68.4724 44.6722C68.2743 45.3676 67.9871 46.3898 67.586 47.2252C67.3063 47.8085 66.4371 48.9756 66.5426 49.4907C66.6513 50.0232 68.5245 51.4455 68.9262 51.8328C69.6495 52.5305 71.0236 53.4566 71.1349 54.337C71.2545 55.274 70.722 56.5559 70.4522 57.46C69.5504 60.4775 68.6705 63.2666 67.648 65.9567Z" fill="#231F20"/>
<path fill-rule="evenodd" clip-rule="evenodd" d="M53.5856 45.0693C53.7 44.9171 54.3287 44.6859 55.2083 45.1094C55.2083 45.1094 54.1658 45.2833 54.2525 47.0215L53.8181 46.9344C53.8181 46.9344 53.3691 45.3583 53.5856 45.0693Z" fill="#F7E4CD"/>
<path fill-rule="evenodd" clip-rule="evenodd" d="M61.2033 60.0106C61.2033 60.2744 60.9893 60.4883 60.7253 60.4883C60.4615 60.4883 60.2476 60.2744 60.2476 60.0106C60.2476 59.7468 60.4615 59.5326 60.7253 59.5326C60.9893 59.5326 61.2033 59.7468 61.2033 60.0106Z" fill="#1D1919"/>
<path fill-rule="evenodd" clip-rule="evenodd" d="M61.6809 62.2254C61.6809 62.4892 61.4669 62.7031 61.2029 62.7031C60.9391 62.7031 60.7251 62.4892 60.7251 62.2254C60.7251 61.9616 60.9391 61.7474 61.2029 61.7474C61.4669 61.7474 61.6809 61.9616 61.6809 62.2254Z" fill="#1D1919"/>
</g>
<defs>
<clipPath id="clip0_491_2185">
<rect width="47.124" height="65.0562" fill="white" transform="translate(30 21)"/>
</clipPath>
</defs>
</svg>
