<svg width="108" height="108" viewBox="0 0 108 108" fill="none" xmlns="http://www.w3.org/2000/svg">
<g clip-path="url(#clip0_491_2256)">
<path d="M28.6 50.2404C28.5241 49.9974 28.3418 49.7999 28.114 49.6784L23.4811 47.4607C23.3596 47.4 23.2229 47.3848 23.1014 47.3848C22.9798 47.3848 22.8431 47.3848 22.7216 47.4151L18.0887 49.648C17.8609 49.7544 17.6938 49.9518 17.633 50.2101L16.4938 55.2075C16.4482 55.4657 16.509 55.7239 16.6609 55.9366L19.8659 59.9011C20.0482 60.0834 20.3064 60.2049 20.5647 60.2201H25.6684C25.9418 60.2505 26.2001 60.129 26.3672 59.9011L29.5722 55.9366C29.7241 55.7239 29.7848 55.4657 29.7545 55.2075L28.6 50.2404Z" fill="#326DE6"/>
<path d="M27.8861 55.0107C27.8709 55.0107 27.8557 55.0107 27.8557 54.9955C27.8557 54.9803 27.8254 54.9803 27.795 54.9803C27.7342 54.9651 27.6735 54.9651 27.6127 54.9651C27.5823 54.9651 27.5519 54.9651 27.5216 54.9499H27.5064C27.3393 54.9347 27.157 54.9044 26.9899 54.8588C26.9444 54.8436 26.8988 54.798 26.8836 54.7525L26.7621 54.7221C26.8228 54.2816 26.7925 53.8259 26.7013 53.3854C26.595 52.9449 26.4127 52.5196 26.1697 52.1398L26.2608 52.0487V52.0335C26.2608 51.9879 26.276 51.9272 26.3064 51.8968C26.4431 51.7753 26.5798 51.6841 26.7317 51.593C26.7621 51.5778 26.7925 51.5626 26.8228 51.5474C26.8836 51.517 26.9292 51.4867 26.9899 51.4563C27.0051 51.4411 27.0203 51.4411 27.0355 51.4259C27.0507 51.4107 27.0355 51.4107 27.0355 51.3955C27.1722 51.2892 27.2026 51.1069 27.0963 50.9702C27.0507 50.9094 26.9595 50.8639 26.8836 50.8639C26.8076 50.8639 26.7317 50.8943 26.6709 50.9398L26.6557 50.955C26.6406 50.9702 26.6254 50.9854 26.6102 50.9854C26.5646 51.031 26.519 51.0765 26.4887 51.1221C26.4735 51.1525 26.4431 51.1677 26.4279 51.1829C26.3216 51.3044 26.1849 51.4259 26.0482 51.517C26.0178 51.5322 25.9874 51.5474 25.957 51.5474C25.9418 51.5474 25.9115 51.5474 25.8963 51.5322H25.8811L25.7596 51.6082C25.638 51.4867 25.5013 51.3651 25.3798 51.2436C24.8178 50.8031 24.1191 50.5297 23.4051 50.4538L23.3899 50.3322V50.3474C23.3444 50.317 23.3292 50.2715 23.314 50.2259C23.314 50.0588 23.314 49.8917 23.3444 49.7095V49.6943C23.3444 49.6639 23.3596 49.6335 23.3596 49.6031C23.3748 49.5424 23.3748 49.4816 23.3899 49.4208V49.3297C23.4051 49.1778 23.2836 49.0259 23.1317 49.0107C23.0406 48.9955 22.9494 49.0411 22.8735 49.1171C22.8127 49.1778 22.7824 49.2538 22.7824 49.3297V49.4057C22.7824 49.4664 22.7975 49.5272 22.8127 49.5879C22.8279 49.6183 22.8279 49.6487 22.8279 49.6791V49.6943C22.8583 49.8613 22.8583 50.0284 22.8583 50.2107C22.8431 50.2563 22.8279 50.3019 22.7824 50.3322V50.3626L22.7672 50.4841C22.6001 50.4993 22.433 50.5297 22.2507 50.5601C21.5368 50.712 20.8836 51.0917 20.3824 51.6234L20.2912 51.5626H20.276C20.2609 51.5626 20.2457 51.5778 20.2153 51.5778C20.1849 51.5778 20.1545 51.5626 20.1242 51.5474C19.9874 51.4411 19.8507 51.3196 19.7444 51.198C19.7292 51.1677 19.6988 51.1525 19.6836 51.1373C19.6381 51.0917 19.6077 51.0462 19.5621 51.0006C19.5469 50.9854 19.5317 50.9854 19.5166 50.9702C19.5014 50.955 19.5014 50.955 19.5014 50.955C19.4406 50.9094 19.3647 50.8791 19.2887 50.8791C19.1976 50.8791 19.1216 50.9094 19.0761 50.9854C18.9849 51.1221 19.0153 51.3044 19.1368 51.4107C19.152 51.4107 19.152 51.4259 19.152 51.4259C19.152 51.4259 19.1824 51.4563 19.1976 51.4563C19.2431 51.4867 19.3039 51.517 19.3647 51.5474C19.395 51.5626 19.4254 51.5778 19.4558 51.593C19.6077 51.6841 19.7596 51.7753 19.8811 51.8968C19.9115 51.9272 19.9419 51.9879 19.9267 52.0335V52.0183L20.0178 52.1094C20.0026 52.1398 19.9874 52.155 19.9723 52.1854C19.5014 52.9297 19.3039 53.8107 19.4406 54.6765L19.3191 54.7069C19.3191 54.7221 19.3039 54.7221 19.3039 54.7221C19.2887 54.7676 19.2431 54.798 19.1976 54.8284C19.0305 54.874 18.8634 54.9044 18.6811 54.9195C18.6507 54.9195 18.6204 54.9195 18.59 54.9347C18.5292 54.9347 18.4685 54.9499 18.4077 54.9499C18.3925 54.9499 18.3773 54.9651 18.3469 54.9651C18.3318 54.9651 18.3318 54.9651 18.3166 54.9803C18.1495 55.0107 18.0432 55.1626 18.0735 55.3297C18.1039 55.4664 18.2406 55.5575 18.3773 55.5423C18.4077 55.5423 18.4229 55.5423 18.4533 55.5271C18.4685 55.5271 18.4685 55.5271 18.4685 55.5119C18.4685 55.4968 18.514 55.5119 18.5292 55.5119C18.59 55.4968 18.6507 55.4664 18.6963 55.4512C18.7267 55.436 18.7571 55.4208 18.7875 55.4208H18.8026C18.9697 55.36 19.1216 55.3145 19.3039 55.2841H19.3191C19.3647 55.2841 19.4102 55.2993 19.4406 55.3297C19.4558 55.3297 19.4558 55.3449 19.4558 55.3449L19.5925 55.3297C19.8204 56.0284 20.2457 56.6512 20.8381 57.1069C20.9748 57.2132 21.0963 57.3043 21.2482 57.3803L21.1722 57.4866C21.1722 57.5018 21.1874 57.5018 21.1874 57.5018C21.2178 57.5474 21.2178 57.6081 21.2026 57.6537C21.1419 57.8056 21.0507 57.9575 20.9596 58.0942V58.1094C20.9444 58.1398 20.9292 58.155 20.8988 58.1853C20.8684 58.2157 20.8381 58.2765 20.7925 58.3372C20.7773 58.3524 20.7773 58.3676 20.7621 58.3828C20.7621 58.3828 20.7621 58.398 20.7469 58.398C20.671 58.5499 20.7317 58.7322 20.8684 58.8081C20.8988 58.8233 20.9444 58.8385 20.9748 58.8385C21.0963 58.8385 21.2026 58.7626 21.2634 58.6562C21.2634 58.6562 21.2634 58.641 21.2786 58.641C21.2786 58.6258 21.2938 58.6107 21.309 58.5955C21.3241 58.5347 21.3545 58.4891 21.3697 58.4284L21.4001 58.3372C21.4457 58.1702 21.5216 58.0183 21.5976 57.8664C21.6279 57.8208 21.6735 57.7904 21.7191 57.7752C21.7343 57.7752 21.7343 57.7752 21.7343 57.76L21.795 57.6385C22.2203 57.8056 22.6608 57.8815 23.1165 57.8815C23.3899 57.8815 23.6634 57.8512 23.9368 57.7752C24.1039 57.7448 24.271 57.6841 24.4229 57.6385L24.4836 57.7448C24.4988 57.7448 24.4988 57.7448 24.4988 57.76C24.5444 57.7752 24.5899 57.8056 24.6203 57.8512C24.6963 58.0031 24.7722 58.155 24.8178 58.322V58.3372L24.8482 58.4284C24.8634 58.4891 24.8785 58.5499 24.9089 58.5955C24.9241 58.6107 24.9241 58.6258 24.9393 58.641C24.9393 58.641 24.9393 58.6562 24.9545 58.6562C25.0153 58.7626 25.1216 58.8385 25.2431 58.8385C25.2887 58.8385 25.319 58.8233 25.3646 58.8081C25.4254 58.7777 25.4861 58.717 25.5013 58.641C25.5165 58.5651 25.5165 58.4891 25.4861 58.4132C25.4861 58.398 25.4709 58.398 25.4709 58.398C25.4709 58.3828 25.4558 58.3676 25.4406 58.3524C25.4102 58.2917 25.3798 58.2461 25.3342 58.2005C25.319 58.1702 25.3039 58.155 25.2735 58.1246V58.0942C25.1672 57.9575 25.0912 57.8056 25.0304 57.6537C25.0153 57.6081 25.0153 57.5474 25.0456 57.5018C25.0456 57.4866 25.0608 57.4866 25.0608 57.4866L25.0153 57.3651C25.7899 56.8942 26.3823 56.1651 26.6557 55.2993L26.7773 55.3145C26.7925 55.3145 26.7925 55.2993 26.7925 55.2993C26.8228 55.2689 26.8684 55.2537 26.914 55.2537H26.9292C27.0963 55.2841 27.2633 55.3297 27.4152 55.3904H27.4304C27.4608 55.4056 27.4912 55.4208 27.5216 55.4208C27.5823 55.4512 27.6279 55.4816 27.6887 55.4968C27.7038 55.4968 27.719 55.5119 27.7494 55.5119C27.7646 55.5119 27.7646 55.5119 27.7798 55.5271C27.8102 55.5423 27.8254 55.5423 27.8557 55.5423C27.9924 55.5423 28.114 55.4512 28.1595 55.3297C28.1443 55.1626 28.0228 55.0411 27.8861 55.0107ZM23.4963 54.5398L23.0862 54.7373L22.676 54.5398L22.5697 54.0993L22.8583 53.7347H23.314L23.6026 54.0993L23.4963 54.5398ZM25.9722 53.5525C26.0482 53.8714 26.0633 54.1904 26.033 54.5094L24.5899 54.0993C24.4532 54.0689 24.3773 53.9322 24.4077 53.7955C24.4229 53.7499 24.438 53.7196 24.4684 53.6892L25.6077 52.6563C25.7747 52.9297 25.8963 53.2335 25.9722 53.5525ZM25.152 52.0942L23.9064 52.9753C23.8001 53.036 23.6482 53.0208 23.5722 52.9145C23.5418 52.8841 23.5267 52.8537 23.5267 52.8082L23.4355 51.274C24.1039 51.3499 24.6963 51.6386 25.152 52.0942ZM22.4026 51.3196L22.7064 51.2588L22.6305 52.7778C22.6305 52.9145 22.5089 53.0208 22.3722 53.0208C22.3267 53.0208 22.2963 53.0056 22.2507 52.9904L20.99 52.0942C21.3849 51.7145 21.871 51.4411 22.4026 51.3196ZM20.5495 52.6563L21.6735 53.6588C21.7798 53.7499 21.795 53.9018 21.7039 54.0082C21.6735 54.0537 21.6431 54.0689 21.5824 54.0841L20.109 54.5094C20.0634 53.8714 20.2153 53.2183 20.5495 52.6563ZM20.2912 55.2233L21.795 54.9651C21.9165 54.9651 22.0381 55.0411 22.0533 55.1626C22.0684 55.2081 22.0684 55.2689 22.0381 55.3145L21.4608 56.7119C20.9292 56.3626 20.5039 55.8309 20.2912 55.2233ZM23.7393 57.1069C23.5267 57.1524 23.314 57.1828 23.0862 57.1828C22.7672 57.1828 22.433 57.1221 22.1292 57.0309L22.8735 55.679C22.9494 55.5879 23.071 55.5575 23.1773 55.6183C23.2229 55.6487 23.2532 55.679 23.2988 55.7246L24.0279 57.0461C23.9368 57.0613 23.8456 57.0765 23.7393 57.1069ZM25.5925 55.7854C25.3646 56.1499 25.0456 56.4689 24.6811 56.6967L24.0887 55.2689C24.0583 55.1474 24.1191 55.0259 24.2254 54.9803C24.271 54.9651 24.3165 54.9499 24.3621 54.9499L25.8811 55.2081C25.8051 55.4208 25.714 55.6183 25.5925 55.7854Z" fill="white"/>
<path d="M90.0731 56.8788C90.2857 56.8939 90.5136 56.8636 90.711 56.7876C90.8326 56.7269 90.9085 56.5901 90.8933 56.4534C90.8781 56.3015 90.787 56.1648 90.6503 56.1193C90.4224 55.9826 90.1642 55.861 89.906 55.7851C89.6478 55.694 89.4199 55.5876 89.2072 55.4813C89.0098 55.3902 88.8427 55.2686 88.6756 55.1167C88.5237 54.9648 88.4174 54.7978 88.3414 54.6003C88.2503 54.3724 88.2199 54.1294 88.2199 53.8864C88.2047 53.3851 88.4326 52.899 88.8275 52.5952C89.2376 52.2763 89.7845 52.1244 90.4832 52.1244C90.8174 52.1244 91.1667 52.1547 91.5009 52.2307C91.7591 52.2763 92.0174 52.337 92.2756 52.4282L91.987 53.7193C91.7743 53.6433 91.5769 53.5978 91.3642 53.537C91.1212 53.4762 90.8629 53.4611 90.6199 53.4611C90.1034 53.4611 89.8452 53.5978 89.8452 53.8864C89.8452 53.9471 89.8604 54.0079 89.8756 54.0686C89.906 54.1294 89.9515 54.175 90.0123 54.2205C90.0731 54.2661 90.1642 54.3117 90.2705 54.3724C90.3769 54.4332 90.5288 54.494 90.711 54.5547C91.0148 54.661 91.3186 54.7978 91.592 54.9497C91.8047 55.056 91.987 55.1927 92.1389 55.375C92.2756 55.5117 92.3667 55.6788 92.4275 55.8762C92.4882 56.0889 92.5186 56.3015 92.5186 56.5142C92.549 57.0307 92.306 57.5319 91.8655 57.8205C91.4401 58.1091 90.8326 58.261 90.0427 58.261C89.6022 58.2762 89.1769 58.2306 88.7516 58.1243C88.5085 58.0636 88.2807 57.9876 88.0528 57.9117L88.3262 56.575C88.5997 56.6813 88.8883 56.7724 89.1769 56.8332C89.4807 56.8484 89.7693 56.8788 90.0731 56.8788ZM81.7035 55.2079C81.6883 54.7522 81.7794 54.2965 81.9313 53.8712C82.0681 53.5066 82.2807 53.1876 82.5541 52.899C82.8124 52.6408 83.101 52.4433 83.4351 52.3218C83.7693 52.1851 84.1187 52.1244 84.468 52.1244C85.2883 52.1244 85.9414 52.3826 86.4123 52.8838C86.8832 53.3851 87.1263 54.1294 87.1263 55.1016C87.1263 55.1927 87.1263 55.299 87.1111 55.4205C87.1111 55.5421 87.0959 55.6332 87.0959 55.7243H83.3896C83.42 56.0433 83.587 56.3471 83.8605 56.5294C84.1946 56.742 84.5896 56.8484 84.9845 56.8332C85.2731 56.8332 85.5769 56.8028 85.8655 56.7572C86.1085 56.7117 86.3516 56.6357 86.5794 56.5294L86.8073 57.8661C86.7009 57.9268 86.5794 57.9572 86.4579 58.0028C86.2908 58.0484 86.1237 58.0939 85.9566 58.1091C85.7744 58.1395 85.5921 58.1699 85.3794 58.2003C85.182 58.2155 84.9693 58.2306 84.7566 58.2306C84.2858 58.2458 83.8301 58.1699 83.3896 58.0028C83.025 57.8661 82.706 57.6534 82.4326 57.38C82.1744 57.1066 81.9921 56.7724 81.8706 56.4231C81.7643 56.0129 81.7035 55.6028 81.7035 55.2079ZM85.5465 54.5851C85.5465 54.4484 85.5161 54.3117 85.4706 54.175C85.4402 54.0383 85.3642 53.9319 85.2883 53.8256C85.1972 53.7193 85.0908 53.6281 84.9693 53.5674C84.8174 53.4914 84.6655 53.4611 84.4984 53.4611C84.3313 53.4611 84.1794 53.4914 84.0275 53.5674C83.906 53.6281 83.7845 53.7041 83.6934 53.8104C83.6022 53.9168 83.5263 54.0383 83.4807 54.175C83.4351 54.3117 83.4048 54.4484 83.3896 54.5851H85.5465ZM77.2529 50.818L78.8934 50.5598V52.2611H80.8681V53.6281H78.8934V55.6636C78.8782 55.9522 78.939 56.2408 79.0757 56.4838C79.1972 56.6813 79.4402 56.7876 79.82 56.7876C80.0023 56.7876 80.1845 56.7724 80.3516 56.742C80.5339 56.7117 80.701 56.6661 80.8681 56.6053L81.0959 57.8813C80.8833 57.9724 80.6554 58.0332 80.4276 58.0939C80.139 58.1547 79.8352 58.1851 79.5314 58.1851C79.1516 58.2003 78.7719 58.1395 78.4225 58.0028C78.1491 57.8965 77.9061 57.7142 77.7238 57.5015C77.5415 57.2737 77.42 57.0003 77.344 56.7117C77.2681 56.3775 77.2377 56.0281 77.2529 55.694V50.818ZM70.615 55.2079C70.5998 54.7522 70.6909 54.2965 70.8428 53.8712C70.9795 53.5066 71.1922 53.1876 71.4656 52.899C71.7238 52.6408 72.0124 52.4433 72.3466 52.3218C72.6808 52.1851 73.0301 52.1244 73.3795 52.1244C74.1998 52.1244 74.8529 52.3826 75.3238 52.8838C75.7947 53.3851 76.0377 54.1294 76.0377 55.1016C76.0377 55.1927 76.0377 55.299 76.0225 55.4205C76.0073 55.5421 76.0073 55.6332 76.0073 55.7243H72.2859C72.3162 56.0433 72.4833 56.3471 72.7567 56.5294C73.0909 56.742 73.4858 56.8484 73.8808 56.8332C74.1694 56.8332 74.4732 56.8028 74.7618 56.7572C75.0048 56.7117 75.2479 56.6357 75.4909 56.5294L75.7187 57.8661C75.6124 57.9268 75.4909 57.9572 75.3694 58.0028C75.2023 58.0484 75.0352 58.0939 74.8681 58.1091C74.6858 58.1395 74.5036 58.1699 74.2909 58.2003C74.0934 58.2155 73.8808 58.2306 73.6681 58.2306C73.1972 58.2458 72.7415 58.1699 72.301 58.0028C71.9365 57.8661 71.6175 57.6534 71.3441 57.38C71.0859 57.1066 70.9036 56.7724 70.7821 56.4231C70.6605 56.0129 70.5998 55.6028 70.615 55.2079ZM74.458 54.5851C74.458 54.4484 74.4276 54.3117 74.382 54.175C74.3517 54.0383 74.2757 53.9319 74.1998 53.8256C74.1086 53.7193 74.0023 53.6281 73.8808 53.5674C73.7289 53.4914 73.577 53.4611 73.4099 53.4611C73.2428 53.4611 73.0909 53.4914 72.939 53.5674C72.8175 53.6281 72.7112 53.7041 72.62 53.8104C72.5289 53.9168 72.4529 54.0383 72.4074 54.175C72.3618 54.3117 72.3314 54.4484 72.3162 54.5851H74.458ZM64.3872 52.4585C64.7365 52.3674 65.1011 52.2914 65.4656 52.2307C65.9213 52.1547 66.3922 52.1244 66.8479 52.1244C67.258 52.1092 67.6682 52.1851 68.0631 52.3218C68.3669 52.4282 68.6403 52.6104 68.8378 52.8535C69.0352 53.0965 69.1719 53.3851 69.2479 53.6889C69.339 54.0383 69.3694 54.4028 69.3694 54.7674V58.0332H67.7441V54.98C67.7441 54.4484 67.6682 54.0838 67.5315 53.856C67.3947 53.6433 67.1365 53.5218 66.7568 53.5218C66.6353 53.5218 66.5137 53.5218 66.377 53.537C66.2403 53.537 66.134 53.5522 66.0277 53.5674V58.0332H64.3872V52.4585ZM63.2328 53.7193C63.0809 53.6889 62.9138 53.6433 62.7163 53.613C62.5036 53.5674 62.291 53.5522 62.0783 53.5522C61.9568 53.5522 61.8353 53.5674 61.6986 53.5826C61.5923 53.5978 61.4859 53.613 61.3796 53.6433V58.0636H59.7391V52.5649C60.0733 52.4433 60.4226 52.3522 60.772 52.2763C61.2125 52.1699 61.6682 52.1244 62.1087 52.1395C62.215 52.1395 62.3214 52.1547 62.4277 52.1547C62.5492 52.1547 62.6707 52.1699 62.8074 52.2003C62.929 52.2155 63.0505 52.2307 63.1872 52.2611C63.2935 52.2763 63.3998 52.3066 63.5062 52.3522L63.2328 53.7193ZM53.0404 55.2079C53.0252 54.7522 53.1164 54.2965 53.2683 53.8712C53.405 53.5066 53.6176 53.1876 53.891 52.899C54.1493 52.6408 54.4379 52.4433 54.7721 52.3218C55.1062 52.1851 55.4556 52.1244 55.805 52.1244C56.6252 52.1244 57.2784 52.3826 57.7492 52.8838C58.2201 53.3851 58.4632 54.1294 58.4632 55.0864C58.4632 55.1775 58.4632 55.2838 58.448 55.4053C58.4328 55.5269 58.4328 55.618 58.4328 55.7091H54.7113C54.7417 56.0281 54.9088 56.3319 55.1822 56.5142C55.5163 56.7269 55.9113 56.8332 56.3062 56.818C56.5948 56.818 56.8986 56.7876 57.1872 56.742C57.4303 56.6965 57.6733 56.6205 57.9011 56.5294L58.129 57.8661C58.0227 57.9268 57.9011 57.9572 57.7796 58.0028C57.6125 58.0484 57.4455 58.0939 57.2784 58.1091C57.0961 58.1395 56.9138 58.1699 56.7012 58.2003C56.5037 58.2155 56.291 58.2306 56.0784 58.2306C55.6075 58.2458 55.1518 58.1699 54.7113 58.0028C54.3467 57.8661 54.0278 57.6534 53.7543 57.38C53.4961 57.1066 53.3138 56.7724 53.1923 56.4231C53.1012 56.0129 53.0404 55.618 53.0404 55.2079ZM56.8986 54.5851C56.8986 54.4484 56.8682 54.3117 56.8227 54.175C56.7923 54.0383 56.7163 53.9319 56.6404 53.8256C56.5493 53.7193 56.4429 53.6281 56.3214 53.5674C56.1695 53.4914 56.0176 53.4611 55.8505 53.4611C55.6834 53.4611 55.5315 53.4914 55.3796 53.5674C55.2581 53.6281 55.1366 53.7041 55.0455 53.8104C54.9543 53.9168 54.8784 54.0383 54.8328 54.175C54.7872 54.3117 54.7569 54.4484 54.7417 54.5851H56.8986ZM50.3822 55.1167C50.3822 54.0535 49.9873 53.537 49.2126 53.537C49.0455 53.537 48.8784 53.5522 48.7113 53.5978C48.5746 53.6281 48.4379 53.6889 48.3164 53.7649V56.742C48.3924 56.7572 48.4987 56.7724 48.6202 56.7876C48.7417 56.8028 48.8784 56.8028 49.0303 56.8028C49.4253 56.8332 49.805 56.6661 50.048 56.3471C50.2759 55.9826 50.3974 55.5572 50.3822 55.1167ZM52.0531 55.1775C52.0531 55.6028 51.9923 56.0281 51.8404 56.4383C51.7189 56.8028 51.5214 57.1218 51.2632 57.3952C50.9898 57.6686 50.6708 57.8813 50.3215 58.018C49.9113 58.1699 49.486 58.2306 49.0455 58.2306C48.848 58.2306 48.6354 58.2155 48.4227 58.2003C48.2101 58.1851 47.9974 58.1547 47.7848 58.1395C47.5873 58.1091 47.3898 58.0787 47.1924 58.0332C46.9949 58.0028 46.8278 57.9572 46.6911 57.8965V49.7699L48.3316 49.5117V52.3978C48.5139 52.3218 48.7113 52.2611 48.9088 52.2155C49.1215 52.1699 49.3341 52.1547 49.5468 52.1547C49.9265 52.1547 50.2911 52.2155 50.6404 52.3826C50.9442 52.5193 51.2176 52.7319 51.4303 52.9902C51.6581 53.2788 51.8252 53.5978 51.9164 53.9471C52.0075 54.3269 52.0531 54.7522 52.0531 55.1775ZM45.1266 57.8509C44.7772 57.942 44.4126 58.018 44.0481 58.0636C43.5924 58.1395 43.1215 58.1699 42.6658 58.1699C42.2405 58.1851 41.8304 58.1091 41.4354 57.9724C41.1316 57.8509 40.8734 57.6686 40.6608 57.4256C40.4633 57.1674 40.3266 56.8788 40.2506 56.5598C40.1595 56.2104 40.1291 55.8307 40.1291 55.4661V52.2611H41.7696V55.2838C41.7696 55.8155 41.8456 56.1952 41.9823 56.4231C42.119 56.6509 42.3772 56.7724 42.7569 56.7724C42.8785 56.7724 43 56.7724 43.1367 56.7572C43.2734 56.742 43.3797 56.742 43.4861 56.7117V52.2611H45.1266V57.8509ZM35.557 54.3573C35.7241 54.175 35.876 53.9927 36.0583 53.8104C36.2253 53.613 36.3924 53.4307 36.5595 53.2484C36.7266 53.0509 36.8785 52.8838 37.0152 52.7168C37.1519 52.5497 37.2886 52.3978 37.395 52.2763H39.3392C38.9443 52.7168 38.5646 53.1573 38.2 53.5674C37.8203 53.9775 37.4253 54.4028 36.9848 54.8281C37.2279 55.056 37.4557 55.2838 37.6684 55.5421C37.8962 55.8155 38.1241 56.0889 38.3519 56.3927C38.5646 56.6813 38.7772 56.9851 38.9595 57.2737C39.1418 57.5623 39.2937 57.8357 39.4152 58.0787H37.5317C37.4102 57.8813 37.2734 57.6838 37.1215 57.456C36.9696 57.2281 36.8026 57.0003 36.6507 56.7572C36.4836 56.5294 36.3013 56.3015 36.1038 56.0889C35.9367 55.8914 35.7545 55.7091 35.557 55.5572V58.0939H33.9165V49.7699L35.557 49.5117V54.3573Z" fill="black"/>
</g>
<defs>
<clipPath id="clip0_491_2256">
<rect width="77" height="13.6104" fill="white" transform="translate(16 47)"/>
</clipPath>
</defs>
</svg>
