<svg width="108" height="108" viewBox="0 0 108 108" fill="none" xmlns="http://www.w3.org/2000/svg">
<g clip-path="url(#clip0_491_1466)">
<path d="M19.8549 51.7168C18.6188 46.2634 16.0423 44.8117 15.385 43.7854C15.114 43.3334 14.8739 42.8634 14.6664 42.3789C14.6317 42.8634 14.5679 43.1686 14.1561 43.5359C13.3293 44.2731 9.81784 47.1346 9.52232 53.3308C9.24699 59.1079 13.7694 62.6703 14.3669 63.0385C14.8263 63.2645 15.3858 63.0433 15.6587 62.8358C17.8388 61.3396 20.8174 57.351 19.8573 51.7168" fill="#10AA50"/>
<path d="M14.8536 59.9629C14.7397 61.3928 14.6582 62.2237 14.3691 63.0408C14.3691 63.0408 14.5589 64.4021 14.6921 65.8442H15.1636C15.2761 64.8287 15.4479 63.8206 15.678 62.8252C15.0676 62.5248 14.877 61.2176 14.8536 59.9629Z" fill="#B8C4C2"/>
<path d="M15.6774 62.8256C15.0605 62.5406 14.882 61.2059 14.8546 59.9625C15.0071 57.9114 15.0516 55.8536 14.9878 53.7978C14.9555 52.7191 15.0032 43.8068 14.7222 42.502C14.9144 42.9439 15.1358 43.3725 15.3851 43.7849C16.0423 44.812 18.6196 46.2637 19.855 51.7171C20.8174 57.3416 17.855 61.3198 15.6774 62.8256Z" fill="#12924F"/>
<path d="M96.9849 60.8529C96.7208 60.8528 96.4625 60.7747 96.2427 60.6283C96.0228 60.482 95.8511 60.2738 95.7492 60.0302C95.6473 59.7865 95.6197 59.5181 95.6699 59.2588C95.7201 58.9995 95.8459 58.7608 96.0313 58.5727C96.2168 58.3847 96.4538 58.2556 96.7124 58.2019C96.971 58.1481 97.2397 58.172 97.4848 58.2705C97.7298 58.3691 97.9403 58.5379 98.0897 58.7557C98.2391 58.9735 98.3208 59.2307 98.3244 59.4948C98.3292 59.6729 98.298 59.8501 98.2326 60.0158C98.1672 60.1815 98.069 60.3323 97.9439 60.4591C97.8188 60.586 97.6694 60.6862 97.5046 60.7539C97.3398 60.8215 97.163 60.8552 96.9849 60.8529ZM96.9849 58.2949C96.7436 58.2933 96.5072 58.3634 96.3057 58.4963C96.1042 58.6291 95.9467 58.8188 95.8531 59.0412C95.7595 59.2637 95.734 59.5089 95.7798 59.7458C95.8257 59.9828 95.9409 60.2008 96.1107 60.3722C96.2806 60.5437 96.4975 60.6608 96.734 60.7089C96.9705 60.757 97.216 60.7338 97.4393 60.6422C97.6626 60.5507 97.8537 60.3949 97.9884 60.1947C98.1231 59.9944 98.1954 59.7587 98.196 59.5174C98.1992 59.3569 98.1701 59.1975 98.1105 59.0485C98.0509 58.8995 97.962 58.764 97.849 58.65C97.7361 58.536 97.6014 58.4458 97.453 58.3849C97.3045 58.3239 97.1454 58.2933 96.9849 58.2949ZM97.3079 60.3603L96.9623 59.6151H96.6837V60.3603H96.4811V58.6647H96.9809C97.3531 58.6647 97.5081 58.8262 97.5081 59.1387C97.5081 59.3874 97.391 59.5424 97.173 59.59L97.5299 60.3579L97.3079 60.3603ZM96.6918 59.4399H96.9849C97.2223 59.4399 97.3127 59.3591 97.3127 59.1427C97.3127 58.9263 97.2263 58.8529 96.9591 58.8529H96.6918V59.4399Z" fill="#21313C"/>
<path d="M77.0487 59.6316C77.4113 59.9215 78.1355 60.041 78.7742 60.041C79.6018 60.041 80.4133 59.8876 81.2062 59.1714C82.0136 58.4375 82.5691 57.3143 82.5691 55.521C82.5691 53.798 81.9135 52.3995 80.5683 51.5808C79.8093 51.1036 78.8259 50.9155 77.7044 50.9155C77.3814 50.9155 77.0487 50.9324 76.8598 51.018C76.7823 51.0792 76.7275 51.1644 76.704 51.2603C76.6701 51.5671 76.6701 53.9038 76.6701 55.2853C76.6701 56.7015 76.6701 58.6765 76.704 58.9187C76.7217 59.1238 76.8251 59.4839 77.0487 59.6349M73.6059 50.1484C73.899 50.1484 75.0132 50.1993 75.5316 50.1993C76.5005 50.1993 77.1699 50.1484 78.9809 50.1484C80.4989 50.1484 81.7762 50.5578 82.6894 51.3418C83.794 52.2978 84.385 53.6276 84.385 55.2481C84.385 57.5509 83.3353 58.8815 82.28 59.6316C81.2304 60.4164 79.865 60.8597 77.92 60.8597C76.8848 60.8597 75.1077 60.8258 73.6245 60.8089H73.5938C73.5243 60.6724 73.7205 60.1403 73.8417 60.1266C74.2454 60.0814 74.3519 60.0652 74.5377 59.9885C74.8509 59.8601 74.9244 59.7003 74.9591 59.1375C75.0108 58.0798 74.9938 56.8178 74.9938 55.3846C74.9938 54.3616 75.0108 52.3656 74.9769 51.7342C74.9244 51.2062 74.7016 51.0697 74.2502 50.9672C73.9301 50.8992 73.6067 50.848 73.2813 50.8138C73.2474 50.7112 73.5122 50.2486 73.5986 50.1484" fill="#21313C"/>
<path d="M88.6604 51.0154C88.5917 51.0323 88.5053 51.2035 88.5053 51.2883C88.4876 51.9027 88.4706 53.5055 88.4706 54.6141C88.475 54.6353 88.4855 54.6547 88.5009 54.6699C88.5163 54.6851 88.5358 54.6955 88.557 54.6996C88.7807 54.7166 89.3329 54.7344 89.7988 54.7344C90.4545 54.7344 90.8339 54.6488 91.0406 54.5462C91.5929 54.2733 91.8481 53.6758 91.8481 53.0283C91.8481 51.5442 90.8129 50.9815 89.278 50.9815C89.0705 50.9788 88.8631 50.9902 88.6571 51.0154M92.5731 57.8381C92.5731 56.3371 91.4686 55.4845 89.45 55.4845C89.3644 55.4845 88.7233 55.4675 88.5707 55.5014C88.5191 55.5184 88.4674 55.5523 88.4674 55.587C88.4674 56.6617 88.4496 58.3839 88.5021 59.0662C88.5368 59.3561 88.7443 59.7654 89.0019 59.8849C89.278 60.0383 89.8989 60.0722 90.3301 60.0722C91.5203 60.0722 92.5731 59.4077 92.5731 57.8381ZM85.5437 50.1797C85.6995 50.1797 86.1582 50.2306 87.3313 50.2306C88.4351 50.2306 89.3321 50.1966 90.3995 50.1966C91.7278 50.1966 93.5558 50.6746 93.5558 52.6528C93.5558 53.6217 92.8662 54.4098 91.9692 54.7852C91.9175 54.8022 91.9175 54.8361 91.9692 54.8531C93.2457 55.176 94.3664 55.9617 94.3664 57.4627C94.3664 58.9297 93.4524 59.851 92.1242 60.4307C91.3168 60.7892 90.3132 60.9079 89.2982 60.9079C88.5223 60.9079 86.4424 60.8272 85.2861 60.8401C85.165 60.7892 85.3968 60.2426 85.5001 60.1578C85.765 60.1497 86.0278 60.1085 86.2825 60.0351C86.6959 59.9334 86.7451 59.8001 86.7968 59.1857C86.8315 58.6568 86.8315 56.7634 86.8315 55.4158C86.8315 53.5733 86.8493 52.329 86.8315 51.7146C86.8146 51.2374 86.6418 51.0832 86.314 50.9984C86.0556 50.9467 85.6244 50.8959 85.2797 50.845C85.1933 50.7594 85.4589 50.2475 85.5445 50.1797" fill="#21313C"/>
<path d="M23.6748 60.8532C23.6304 60.744 23.6124 60.6259 23.6223 60.5084C23.6185 60.4283 23.6366 60.3488 23.6748 60.2783C23.8979 60.2461 24.119 60.2011 24.3369 60.1434C24.6421 60.0675 24.7568 59.9012 24.7745 59.512C24.8246 58.5924 24.8278 56.8669 24.8101 55.6542V55.6186C24.8101 55.4878 24.8101 55.3102 24.6486 55.1851C24.3647 55.007 24.0566 54.871 23.7338 54.7813C23.5892 54.7385 23.5093 54.6627 23.5133 54.5738C23.5174 54.485 23.6086 54.3801 23.7967 54.3429C24.2965 54.292 25.6062 53.9796 26.1205 53.7422C26.1735 53.8112 26.198 53.8979 26.1891 53.9844C26.1891 54.0377 26.1811 54.0942 26.1754 54.1524C26.1609 54.3235 26.1447 54.5181 26.1447 54.7119C26.1479 54.7354 26.1576 54.7576 26.1726 54.776C26.1877 54.7943 26.2077 54.8081 26.2301 54.8157C26.2526 54.8234 26.2768 54.8246 26.2999 54.8192C26.3231 54.8138 26.3443 54.8021 26.3611 54.7854C27.3405 54.0175 28.2182 53.7438 28.6679 53.7438C29.4083 53.7438 29.9848 54.0975 30.4313 54.8258C30.4416 54.8433 30.4562 54.858 30.4737 54.8683C30.4912 54.8786 30.5111 54.8843 30.5315 54.8847C30.55 54.8845 30.5681 54.8799 30.5844 54.8712C30.6007 54.8624 30.6147 54.8499 30.6251 54.8346C31.5254 54.1516 32.4176 53.7438 33.0151 53.7438C34.4265 53.7438 35.2702 54.8007 35.2702 56.5698C35.2702 57.0785 35.2654 57.7236 35.2605 58.3251C35.2565 58.8532 35.2525 59.3481 35.2525 59.6905C35.2525 59.7712 35.3639 60.0038 35.531 60.0498C35.7377 60.1507 36.0357 60.2024 36.4127 60.267H36.4273C36.4555 60.3687 36.3958 60.7635 36.3385 60.8443C36.2448 60.8443 36.1156 60.8362 35.9541 60.8281C35.661 60.8136 35.2589 60.7934 34.7914 60.7934C33.8532 60.7934 33.3631 60.8112 32.8948 60.8419C32.8593 60.7248 32.8472 60.3469 32.8899 60.2678C33.0839 60.2375 33.2758 60.1957 33.4648 60.1426C33.7636 60.0441 33.85 59.9085 33.8685 59.512C33.8758 59.2302 33.9299 56.7474 33.8338 56.158C33.745 55.5468 33.2848 54.8314 32.2779 54.8314C31.9041 54.8314 31.3009 54.9872 30.726 55.4232C30.6904 55.4637 30.6703 55.5155 30.6695 55.5694V55.5815C30.7374 55.8996 30.7374 56.271 30.7374 56.8322C30.7374 57.1552 30.7374 57.4919 30.7333 57.8286C30.7293 58.5133 30.726 59.1592 30.7374 59.6477C30.7374 59.9803 30.9384 60.0603 31.1007 60.1241C31.1887 60.1434 31.2581 60.1604 31.3284 60.1765C31.4632 60.2097 31.6037 60.2436 31.8128 60.2767C31.8438 60.4185 31.841 60.5656 31.8048 60.7062C31.7962 60.759 31.7755 60.809 31.7442 60.8524C31.2226 60.8346 30.6873 60.8193 29.9146 60.8193C29.6804 60.8193 29.2985 60.8289 28.961 60.8378C28.6873 60.8451 28.4289 60.8524 28.282 60.8532C28.2422 60.7594 28.2246 60.6577 28.2303 60.556C28.2221 60.4602 28.2408 60.364 28.2844 60.2783L28.4919 60.2403C28.6728 60.208 28.8294 60.1806 28.9764 60.1434C29.2315 60.0627 29.3276 59.9238 29.3462 59.5984C29.3962 58.8395 29.435 56.6521 29.3276 56.1047C29.1451 55.2262 28.6453 54.7805 27.8411 54.7805C27.3704 54.7805 26.7753 55.0074 26.2893 55.3716C26.2425 55.4171 26.2057 55.4718 26.1811 55.5322C26.1565 55.5927 26.1447 55.6576 26.1463 55.7228C26.1463 55.9836 26.1463 56.2936 26.1463 56.6263C26.1463 57.7244 26.1391 59.0914 26.1657 59.6824C26.1819 59.8649 26.2465 60.0813 26.588 60.1604C26.6631 60.1822 26.7923 60.2032 26.9425 60.2282C27.0289 60.2428 27.1233 60.2581 27.221 60.2759C27.2521 60.4692 27.2363 60.6672 27.175 60.8532C27.0248 60.8532 26.8399 60.8435 26.6284 60.8346C26.3054 60.8201 25.9017 60.8023 25.4455 60.8023C24.9061 60.8023 24.5307 60.8201 24.2295 60.8346C24.0269 60.8443 23.8516 60.8524 23.6764 60.8532" fill="#21313C"/>
<path d="M40.9902 54.4731C40.6988 54.4671 40.4121 54.5477 40.1666 54.7048C39.5675 55.069 39.2623 55.7965 39.2623 56.8655C39.2623 58.8663 40.2643 60.264 41.6991 60.264C42.0838 60.2762 42.4591 60.1433 42.7504 59.8917C43.1912 59.5324 43.4254 58.7977 43.4254 57.769C43.4254 55.7981 42.446 54.4731 40.9886 54.4731M41.2647 61.006C38.6729 61.006 37.75 59.1045 37.75 57.3257C37.75 56.0831 38.2579 55.1118 39.2599 54.4376C39.9617 54.0031 40.7673 53.765 41.5925 53.748C43.5699 53.748 44.9514 55.1699 44.9514 57.2071C44.9514 58.591 44.3999 59.6842 43.3559 60.3673C42.8545 60.6741 41.9833 61.006 41.2647 61.006Z" fill="#21313C"/>
<path d="M67.3768 54.4731C67.0848 54.4665 66.7974 54.5472 66.5516 54.7048C65.9525 55.069 65.6473 55.7965 65.6473 56.8655C65.6473 58.8663 66.6493 60.264 68.0841 60.264C68.4699 60.277 68.8464 60.1441 69.1386 59.8917C69.5794 59.5324 69.8128 58.7977 69.8128 57.769C69.8128 55.7981 68.8342 54.4731 67.3768 54.4731ZM67.6529 61.006C65.0611 61.006 64.1382 59.1045 64.1382 57.3266C64.1382 56.0823 64.6461 55.1118 65.6489 54.4376C66.3503 54.0028 67.1557 53.7647 67.9807 53.748C69.9581 53.748 71.3396 55.1707 71.3396 57.2062C71.3396 58.5918 70.7881 59.6842 69.7441 60.3665C69.2427 60.6741 68.3715 61.006 67.6529 61.006Z" fill="#21313C"/>
<path d="M58.65 54.4059C57.8515 54.4059 57.3347 55.0365 57.3347 56.0127C57.3347 56.9888 57.7796 58.1491 59.0303 58.1491C59.2451 58.1491 59.6343 58.0538 59.8272 57.8415C60.1179 57.5742 60.3117 57.0219 60.3117 56.439C60.3117 55.1657 59.6916 54.4059 58.654 54.4059M58.5507 61.143C58.3251 61.1406 58.1027 61.1962 57.9048 61.3045C57.2725 61.7082 56.9794 62.1119 56.9794 62.5811C56.9794 63.0203 57.1498 63.3699 57.5164 63.68C57.9605 64.0562 58.5596 64.2395 59.3468 64.2395C60.8963 64.2395 61.5907 63.4062 61.5907 62.5811C61.5907 62.0062 61.3024 61.621 60.7089 61.403C60.2519 61.2359 59.4881 61.1438 58.5531 61.1438M58.6565 65.1002C57.7263 65.1002 57.0562 64.904 56.4837 64.4632C55.9266 64.0336 55.6763 63.3958 55.6763 62.9549C55.6823 62.6708 55.7907 62.3984 55.9815 62.1878C56.143 62.0038 56.5184 61.659 57.3864 61.0623C57.3998 61.0566 57.4113 61.047 57.4194 61.0348C57.4274 61.0226 57.4317 61.0083 57.4316 60.9937C57.4319 60.9773 57.4266 60.9614 57.4166 60.9485C57.4066 60.9356 57.3926 60.9265 57.3767 60.9226C56.6621 60.6489 56.4466 60.1959 56.3811 59.9537C56.3811 59.9448 56.3811 59.9311 56.3739 59.9158C56.3537 59.8205 56.3343 59.73 56.4643 59.6372C56.5644 59.5661 56.7243 59.4709 56.8955 59.3699C57.1371 59.2362 57.3689 59.0853 57.5891 58.9186C57.6009 58.9059 57.6097 58.8906 57.6147 58.874C57.6197 58.8573 57.6209 58.8398 57.6181 58.8226C57.6153 58.8055 57.6086 58.7892 57.5985 58.7751C57.5884 58.7609 57.5753 58.7492 57.56 58.741C56.5023 58.3857 55.9694 57.6001 55.9694 56.3994C55.9661 56.025 56.0532 55.6554 56.2233 55.3218C56.3934 54.9883 56.6414 54.7007 56.9463 54.4834C57.3719 54.1467 58.4401 53.7422 59.132 53.7422H59.1724C59.8838 53.7591 60.285 53.9085 60.8405 54.1136C61.1565 54.2279 61.4914 54.281 61.8272 54.2702C62.4158 54.2702 62.6734 54.0837 62.8946 53.8665C62.9305 53.9644 62.9496 54.0675 62.9512 54.1717C62.9647 54.42 62.8972 54.6659 62.759 54.8726C62.6387 55.0397 62.3553 55.1608 62.0961 55.1608C62.0694 55.1608 62.0436 55.1608 62.0154 55.1568C61.879 55.1472 61.7438 55.1248 61.6116 55.0898L61.5454 55.1132C61.5244 55.1439 61.5382 55.1778 61.5551 55.2214C61.5593 55.2299 61.5625 55.2388 61.5648 55.248C61.6121 55.4635 61.6442 55.6821 61.6609 55.902C61.6609 57.1576 61.1659 57.7042 60.6306 58.1095C60.1131 58.4979 59.4984 58.7359 58.8543 58.7975C58.8406 58.7975 58.7735 58.8031 58.6476 58.8144C58.5668 58.8217 58.4619 58.8314 58.4465 58.8314H58.4312C58.3149 58.8637 58.0113 59.0082 58.0113 59.2771C58.0113 59.4999 58.1486 59.7769 58.805 59.8269L59.2297 59.8568C60.0953 59.9174 61.1764 59.9925 61.6851 60.1644C62.0225 60.2831 62.314 60.5051 62.5179 60.799C62.7219 61.0928 62.828 61.4435 62.8212 61.8011C62.8212 62.9274 62.0202 63.9868 60.6791 64.6343C60.0466 64.9364 59.3541 65.0918 58.6532 65.0889" fill="#21313C"/>
<path d="M54.6889 60.2532C54.3094 60.2024 54.0325 60.1507 53.7055 59.9973C53.6413 59.9308 53.599 59.8463 53.5844 59.7551C53.5497 59.2262 53.5497 57.6913 53.5497 56.6868C53.5497 55.8673 53.4124 55.1527 53.0652 54.64C52.651 54.0595 52.0648 53.7188 51.3058 53.7188C50.6332 53.7188 49.7362 54.179 48.995 54.8104C48.9772 54.8273 48.8634 54.9355 48.8658 54.7676C48.8682 54.5996 48.894 54.2589 48.9102 54.0409C48.9174 53.983 48.9109 53.9242 48.8913 53.8692C48.8716 53.8143 48.8394 53.7647 48.7972 53.7244C48.3127 53.9666 46.9538 54.2896 46.4508 54.3389C46.0842 54.4099 45.9914 54.7627 46.383 54.8847H46.3886C46.7021 54.9711 47.0013 55.1028 47.2768 55.2755C47.4318 55.395 47.4148 55.5653 47.4148 55.7018C47.4318 56.8443 47.4318 58.6012 47.3801 59.5564C47.3632 59.9319 47.259 60.0683 46.9829 60.137L47.0087 60.1281C46.7984 60.1808 46.5851 60.2207 46.37 60.2476C46.2836 60.3324 46.2836 60.8273 46.37 60.9299C46.5428 60.9299 47.4197 60.879 48.1464 60.879C49.146 60.879 49.6635 60.9299 49.9227 60.9299C50.0269 60.8104 50.0608 60.3501 49.9921 60.2476C49.7533 60.2368 49.5161 60.2024 49.284 60.145C49.0087 60.0772 48.9393 59.94 48.9223 59.6339C48.8884 58.8314 48.8884 57.1261 48.8884 55.9658C48.8884 55.6428 48.974 55.4886 49.0773 55.4006C49.4221 55.0938 49.9921 54.8895 50.4919 54.8895C50.9764 54.8895 51.2994 55.0429 51.5416 55.2472C51.8237 55.4934 52.0006 55.8385 52.0357 56.2113C52.1044 56.8572 52.0866 58.1564 52.0866 59.2795C52.0866 59.8939 52.0357 60.0481 51.8113 60.116C51.7079 60.1668 51.4318 60.2185 51.104 60.2524C51.0006 60.355 51.0345 60.8322 51.104 60.9347C51.5521 60.9347 52.0729 60.8838 52.8286 60.8838C53.7773 60.8838 54.3813 60.9347 54.6227 60.9347C54.7261 60.8152 54.7608 60.3695 54.6922 60.2524" fill="#21313C"/>
</g>
<defs>
<clipPath id="clip0_491_1466">
<rect width="89.8348" height="24.2227" fill="white" transform="translate(9 42)"/>
</clipPath>
</defs>
</svg>
