<svg width="108" height="108" viewBox="0 0 108 108" fill="none" xmlns="http://www.w3.org/2000/svg">
<path d="M47.9307 60.7195C46.8939 66.3454 45.527 70.4384 43.8299 72.9813C42.5074 74.9468 41.0588 75.9295 39.4814 75.9295C39.0609 75.9295 38.5426 75.8028 37.9267 75.5511V74.1946C38.2273 74.2386 38.58 74.2621 38.9852 74.2621C39.7211 74.2621 40.3141 74.0587 40.7658 73.6526C41.3061 73.1578 41.5765 72.602 41.5765 71.9858C41.5765 71.5648 41.3656 70.7008 40.9457 69.3941L38.1519 60.7167H40.6527L42.6573 67.2068C43.1077 68.6801 43.2956 69.709 43.2204 70.2954C44.3171 67.3652 45.0835 64.1726 45.5189 60.7212H47.9299M36.8909 71.9423H34.3456C34.2561 67.6448 34.0079 63.6034 33.6024 59.8163H33.58L29.704 71.9423H27.7656L23.9133 59.8163H23.8906C23.6048 63.4523 23.4249 67.4928 23.35 71.9423H21.0288C21.1787 66.5327 21.5542 61.4632 22.1545 56.7305H25.3093L28.982 67.9063H29.0045L32.6999 56.7305H35.7187C36.3796 62.2741 36.77 67.3453 36.8897 71.9423" fill="#00758F"/>
<path d="M81.8182 71.9398H74.5861V56.728H77.0198V70.0666H81.8182V71.938M63.6315 68.8947C63.0155 67.9029 62.7072 66.3121 62.7072 64.1176C62.7072 60.287 63.8718 58.3704 66.1994 58.3704C67.4167 58.3704 68.3101 58.8288 68.8807 59.745C69.4959 60.7368 69.8041 62.315 69.8041 64.4787C69.8041 68.34 68.6394 70.272 66.3119 70.272C65.0955 70.272 64.2011 69.8141 63.6315 68.8965M72.6886 72.3063L69.893 70.9272C70.1419 70.723 70.3783 70.5027 70.5922 70.2477C71.7796 68.8523 72.3728 66.7863 72.3728 64.0507C72.3728 59.0175 70.3972 56.5 66.4469 56.5C64.5094 56.5 62.9991 57.1382 61.9179 58.4166C60.7306 59.8139 60.1373 61.8726 60.1373 64.5919C60.1373 67.2659 60.6627 69.2278 61.7138 70.4739C62.6717 71.6006 64.1203 72.1643 66.0605 72.1643C66.7841 72.1643 67.4483 72.0752 68.0515 71.8969L71.6916 74.0163L72.6839 72.3059M59.0779 67.7225C59.0779 69.0129 58.604 70.0717 57.6592 70.9006C56.7141 71.7257 55.4433 72.1394 53.8532 72.1394C52.3656 72.1394 50.9242 71.6634 49.5273 70.7187L50.1807 69.412C51.3826 70.0129 52.4702 70.313 53.4462 70.313C54.3623 70.313 55.0789 70.1091 55.5977 69.7063C56.1152 69.3005 56.4253 68.7344 56.4253 68.0168C56.4253 67.1135 55.7956 66.3417 54.6402 65.6938C53.5735 65.1082 51.4419 63.8858 51.4419 63.8858C50.2872 63.0429 49.7076 62.1383 49.7076 60.6488C49.7076 59.4163 50.1394 58.42 51.002 57.6626C51.8665 56.9031 52.9821 56.5233 54.3481 56.5233C55.7605 56.5233 57.044 56.9002 58.2005 57.6517L57.6131 58.9575C56.6235 58.5379 55.6484 58.3273 54.686 58.3273C53.9055 58.3273 53.3037 58.5148 52.8846 58.8919C52.4629 59.2657 52.2022 59.7469 52.2022 60.3335C52.2022 61.2344 52.8457 62.0157 54.0336 62.6763C55.1139 63.2622 57.2981 64.5088 57.2981 64.5088C58.4864 65.3501 59.0787 66.2472 59.0787 67.7249" fill="#F29111"/>
<path d="M83.5509 71.9403H83.9541V70.3929H84.4819V70.0767H83.0024V70.3929H83.5506L83.5509 71.9403ZM86.6196 71.9403H86.9996V70.0762H86.428L85.9628 71.3467L85.4562 70.0762H84.9054V71.9403H85.265V70.5214H85.2855L85.8159 71.9403H86.09L86.6196 70.5214L86.6196 71.9403Z" fill="#F29111"/>
<path d="M61.5904 31.111C60.9474 31.1014 60.3868 31.3437 60.0974 32.0539C59.6011 33.2493 60.8325 34.4248 61.2557 35.032C61.5678 35.4543 61.9724 35.933 62.1918 36.4103C62.3206 36.7229 62.3578 37.0544 62.487 37.3849C62.7807 38.1935 63.0557 39.0943 63.4421 39.849C63.6436 40.235 63.8638 40.6397 64.1211 40.9874C64.2695 41.1908 64.5258 41.2815 64.5812 41.6133C64.3248 41.9805 64.3047 42.5318 64.158 42.9924C63.4968 45.0693 63.7535 47.6429 64.6912 49.1686C64.9844 49.628 65.6835 50.6391 66.6214 50.2527C67.4483 49.9224 67.2644 48.8745 67.5032 47.956C67.5581 47.7338 67.5214 47.5881 67.6313 47.4413V47.4783C67.8885 47.9923 68.1466 48.4873 68.3853 49.0041C68.9558 49.9038 69.9473 50.8411 70.7745 51.4655C71.2143 51.7976 71.5638 52.3665 72.1152 52.5695V52.5138H72.079C71.9682 52.3489 71.8032 52.2749 71.656 52.1469C71.3254 51.8158 70.9589 51.4111 70.7009 51.0438C69.9294 50.0149 69.2486 48.8747 68.6436 47.6983C68.3487 47.1271 68.0919 46.5028 67.8528 45.9336C67.7429 45.7141 67.7428 45.3823 67.5587 45.2722C67.2823 45.6762 66.8791 46.0258 66.6773 46.5201C66.3279 47.3115 66.2913 48.2856 66.1617 49.2965C66.0887 49.3157 66.1256 49.2966 66.0887 49.3332C65.5013 49.1862 65.2992 48.5797 65.0782 48.0663C64.527 46.7596 64.4343 44.6638 64.9128 43.1571C65.0408 42.7717 65.5938 41.559 65.3723 41.1907C65.2611 40.8399 64.8939 40.6396 64.692 40.3626C64.4538 40.0135 64.1952 39.5731 64.0314 39.1862C63.5901 38.1573 63.3684 37.0171 62.8922 35.9882C62.6715 35.5095 62.2846 35.0136 61.9733 34.5729C61.6234 34.0765 61.2381 33.7273 60.9619 33.1395C60.8708 32.9369 60.7421 32.6056 60.8885 32.3857C60.9247 32.2384 60.9993 32.1832 61.1465 32.1462C61.3841 31.944 62.0645 32.2008 62.303 32.3112C62.9834 32.5861 63.553 32.8447 64.1217 33.2297C64.3792 33.4139 64.655 33.7634 64.9852 33.856H65.372C65.9598 33.9837 66.6219 33.8916 67.1734 34.0577C68.1467 34.3699 69.0284 34.8295 69.8194 35.3255C72.2258 36.8512 74.2105 39.0213 75.5511 41.6121C75.7722 42.0343 75.8649 42.4205 76.0667 42.8609C76.4527 43.7634 76.9312 44.6825 77.3167 45.5639C77.7023 46.4279 78.0703 47.3095 78.6219 48.0271C78.8968 48.4124 79.9998 48.6147 80.4959 48.817C80.8627 48.9819 81.4329 49.1291 81.764 49.331C82.3887 49.7164 83.0122 50.1582 83.6008 50.5816C83.8941 50.8023 84.8127 51.2613 84.868 51.6296C83.3977 51.5928 82.2587 51.7398 81.3036 52.1446C81.0279 52.2548 80.5873 52.2547 80.5496 52.604C80.6976 52.7507 80.7155 52.9897 80.845 53.1928C81.0649 53.5604 81.45 54.0559 81.8002 54.314C82.1861 54.6083 82.5719 54.9013 82.9767 55.1586C83.6928 55.6016 84.5014 55.8579 85.199 56.2988C85.6045 56.5558 86.0075 56.8864 86.4126 57.1629C86.6141 57.3099 86.7415 57.5492 86.9999 57.6402V57.5842C86.8704 57.4192 86.8344 57.1805 86.7064 56.9956C86.5231 56.8132 86.3388 56.6468 86.1547 56.4637C85.6215 55.7469 84.9592 55.1226 84.2444 54.6077C83.6559 54.2022 82.3686 53.6503 82.1309 52.9725C82.1309 52.9725 82.1115 52.9532 82.0934 52.9351C82.4978 52.8978 82.9767 52.7505 83.3624 52.639C83.9863 52.474 84.5561 52.5111 85.1992 52.3462C85.4936 52.2722 85.7877 52.1799 86.083 52.0896V51.923C85.7504 51.5929 85.5128 51.1508 85.1641 50.8389C84.228 50.0304 83.1976 49.2408 82.1318 48.5775C81.5613 48.2097 80.8265 47.972 80.2197 47.659C80.0002 47.5485 79.6331 47.4941 79.5039 47.3092C79.1729 46.905 78.9883 46.3726 78.7499 45.8939C78.2176 44.884 77.7023 43.7628 77.2433 42.695C76.9127 41.9786 76.7105 41.2625 76.3063 40.6001C74.4123 37.4744 72.3551 35.5822 69.1949 33.7253C68.5148 33.3388 67.7064 33.1738 66.8437 32.9715C66.3836 32.9523 65.9249 32.9164 65.465 32.8983C65.1706 32.7691 64.8759 32.4194 64.6191 32.2541C63.9642 31.8407 62.6634 31.1257 61.5922 31.1094L61.5904 31.111ZM66.124 35.6546C65.8122 35.6546 65.5922 35.6924 65.3704 35.747V35.7838H65.4062C65.5546 36.0772 65.8123 36.2811 65.9945 36.538C66.1425 36.8322 66.2712 37.1251 66.4181 37.4196C66.4361 37.4016 66.4536 37.3825 66.4536 37.3825C66.7127 37.1996 66.8414 36.9057 66.8414 36.464C66.7303 36.3345 66.7129 36.2068 66.6202 36.0776C66.5103 35.8941 66.2713 35.8019 66.124 35.6546Z" fill="#00758F"/>
</svg>
