<svg width="108" height="108" viewBox="0 0 108 108" fill="none" xmlns="http://www.w3.org/2000/svg">
<path d="M47.0453 85.2074C46.1988 85.2074 45.3582 84.9853 44.6161 84.558L36.8838 79.9803C35.729 79.3344 36.2925 79.106 36.6734 78.9744C38.2132 78.4352 38.5257 78.3135 40.1693 77.38C40.3421 77.2815 40.5682 77.3163 40.745 77.4206L46.6852 80.9456C46.8998 81.0615 47.2041 81.0615 47.403 80.9456L70.5644 67.5763C70.7789 67.4546 70.918 67.2053 70.918 66.9502V40.2233C70.918 39.9566 70.7789 39.7189 70.5597 39.5855L47.4076 26.2279C47.1931 26.1003 46.909 26.1003 46.6945 26.2279L23.5471 39.5855C23.3227 39.7131 23.1801 39.9624 23.1801 40.2175V66.9444C23.1801 67.1995 23.3192 67.443 23.5395 67.5647L29.8821 71.2288C33.3259 72.9507 35.4304 70.9215 35.4304 68.8808V42.5017C35.4304 42.1249 35.7261 41.835 36.1029 41.835H39.0365C39.4017 41.835 39.7032 42.1249 39.7032 42.5017V68.8924C39.7032 73.4841 37.1986 76.122 32.8447 76.122C31.5054 76.122 30.4502 76.122 27.5051 74.6726L21.4292 71.1708C19.9276 70.3012 19 68.6779 19 66.9444V40.2175C19 38.4782 19.9276 36.8549 21.4292 35.9968L44.6138 22.6218C46.0806 21.7927 48.0285 21.7927 49.4837 22.6218L72.6393 36.0026C74.1351 36.8665 75.0685 38.484 75.0685 40.2233V66.9502C75.0685 68.6837 74.1351 70.3012 72.6393 71.1708L49.4837 84.5459C48.7417 84.9749 47.901 85.1952 47.043 85.1952" fill="#689F63"/>
<path d="M54.1994 66.7905C44.0652 66.7905 41.9404 62.1385 41.9404 58.2368C41.9404 57.8657 42.2396 57.57 42.6112 57.57H45.6028C45.9332 57.57 46.2115 57.8106 46.2637 58.137C46.7159 61.1854 48.0609 62.7229 54.189 62.7229C59.0706 62.7229 61.1461 61.6202 61.1461 59.0316C61.1461 57.5416 60.5548 56.4343 52.9715 55.6922C46.6289 55.0661 42.7098 53.6688 42.7098 48.5959C42.7098 43.9231 46.6521 41.1402 53.2556 41.1402C60.6707 41.1402 64.3464 43.7144 64.8102 49.2453C64.8276 49.4366 64.758 49.6221 64.6305 49.7613C64.5029 49.8946 64.3232 49.9758 64.1377 49.9758H61.1287C60.8156 49.9758 60.5432 49.7555 60.4794 49.454C59.7547 46.2479 58.0038 45.2217 53.244 45.2217C47.916 45.2217 47.2957 47.077 47.2957 48.4684C47.2957 50.1555 48.0262 50.6483 55.2152 51.5991C62.3346 52.5441 65.7146 53.8775 65.7146 58.8809C65.7146 63.9248 61.5056 66.8178 54.1658 66.8178M82.3769 38.4733H83.1538C83.7915 38.4733 83.9133 38.0269 83.9133 37.766C83.9133 37.0819 83.4437 37.0819 83.1828 37.0819H82.3827L82.3769 38.4733ZM81.4319 36.2819H83.1538C83.7451 36.2819 84.9046 36.2819 84.9046 37.6037C84.9046 38.5255 84.3133 38.7168 83.9596 38.8328C84.6496 38.8792 84.6959 39.3314 84.7887 39.9691C84.8351 40.3692 84.9104 41.0591 85.0496 41.291H83.9886C83.9596 41.0591 83.7973 39.7836 83.7973 39.714C83.7277 39.4299 83.6292 39.2908 83.2755 39.2908H82.4001V41.2968H81.4319V36.2819ZM79.3622 38.7748C79.3622 40.8504 81.0377 42.5317 83.0958 42.5317C85.1713 42.5317 86.8468 40.8156 86.8468 38.7748C86.8468 36.6935 85.1481 35.0412 83.09 35.0412C81.0608 35.0412 79.3563 36.6703 79.3563 38.769M87.5657 38.7864C87.5657 41.2446 85.554 43.2506 83.1016 43.2506C80.6666 43.2506 78.6375 41.2678 78.6375 38.7864C78.6375 36.2587 80.713 34.3223 83.1016 34.3223C85.5076 34.3223 87.5599 36.2645 87.5599 38.7864" fill="#689F63"/>
</svg>
