<svg width="108" height="108" viewBox="0 0 108 108" fill="none" xmlns="http://www.w3.org/2000/svg">
<g clip-path="url(#clip0_491_828)">
<mask id="mask0_491_828" style="mask-type:luminance" maskUnits="userSpaceOnUse" x="16" y="34" width="76" height="40">
<path d="M16.584 53.8538C16.584 64.7957 33.4467 73.666 54.2471 73.666C75.0475 73.666 91.9104 64.7957 91.9104 53.8538C91.9104 42.912 75.0475 34.0415 54.2471 34.0415C33.4467 34.0415 16.584 42.912 16.584 53.8538Z" fill="white"/>
</mask>
<g mask="url(#mask0_491_828)">
<path d="M16.584 53.8538C16.584 64.7957 33.4467 73.666 54.2471 73.666C75.0475 73.666 91.9104 64.7957 91.9104 53.8538C91.9104 42.912 75.0475 34.0415 54.2471 34.0415C33.4467 34.0415 16.584 42.912 16.584 53.8538Z" fill="url(#paint0_radial_491_828)"/>
</g>
<mask id="mask1_491_828" style="mask-type:luminance" maskUnits="userSpaceOnUse" x="15" y="31" width="79" height="45">
<path d="M15.0146 31.7854H93.4795V75.9219H15.0146V31.7854Z" fill="white"/>
</mask>
<g mask="url(#mask1_491_828)">
<path d="M54.2471 72.1953C74.235 72.1953 90.439 63.9836 90.439 53.854C90.439 43.7246 74.235 35.5127 54.2471 35.5127C34.2591 35.5127 18.0552 43.7246 18.0552 53.854C18.0552 63.9836 34.2591 72.1953 54.2471 72.1953Z" fill="#777BB3"/>
</g>
<mask id="mask2_491_828" style="mask-type:luminance" maskUnits="userSpaceOnUse" x="15" y="31" width="79" height="45">
<path d="M15.0146 31.7854H93.4795V75.9219H15.0146V31.7854Z" fill="white"/>
</mask>
<g mask="url(#mask2_491_828)">
<path d="M37.0466 56.1283C38.6901 56.1283 39.9171 55.8252 40.6934 55.2277C41.4615 54.6363 41.9919 53.6118 42.27 52.1827C42.5292 50.8469 42.4304 49.9142 41.9765 49.4108C41.5124 48.8967 40.509 48.636 38.9942 48.636H36.3677L34.9116 56.1283H37.0466ZM28.4559 65.3574C28.334 65.3574 28.2182 65.3029 28.1407 65.2087C28.0631 65.1145 28.0316 64.9906 28.0549 64.8708L31.9138 45.0161C31.9511 44.8242 32.1194 44.6855 32.315 44.6855H40.632C43.2459 44.6855 45.1914 45.3952 46.4143 46.7952C47.6437 48.2025 48.0234 50.1697 47.5426 52.642C47.347 53.6493 47.0105 54.5847 46.5426 55.4222C46.0741 56.2607 45.455 57.0365 44.7021 57.7285C43.8008 58.572 42.7808 59.1836 41.673 59.5435C40.5828 59.8987 39.1827 60.0788 37.5117 60.0788H34.1439L33.1822 65.0267C33.1449 65.2187 32.9768 65.3574 32.7812 65.3574H28.4559Z" fill="black"/>
<path d="M36.7045 49.0442H38.9942C40.8224 49.0442 41.4575 49.4453 41.6733 49.6844C42.0313 50.0814 42.0989 50.9183 41.8688 52.1047C41.6102 53.4329 41.131 54.3746 40.4442 54.9034C39.741 55.4448 38.5978 55.7191 37.0466 55.7191H35.4073L36.7045 49.0442ZM40.632 44.2763H32.3149C31.9236 44.2763 31.5873 44.5537 31.5126 44.9377L27.6537 64.7924C27.6071 65.0321 27.6701 65.2799 27.8252 65.4682C27.9805 65.6566 28.2118 65.7656 28.4559 65.7656H32.781C33.1724 65.7656 33.5087 65.4883 33.5834 65.1043L34.4808 60.487H37.5117C39.2256 60.487 40.6685 60.3001 41.7999 59.9316C42.9633 59.5536 44.0338 58.9126 44.9812 58.0266C45.7648 57.3057 46.4102 56.4966 46.8992 55.6213C47.3884 54.7458 47.7399 53.7695 47.9438 52.7195C48.4499 50.1171 48.0388 48.0331 46.722 46.5259C45.4181 45.0332 43.369 44.2763 40.632 44.2763ZM34.4157 56.5365H37.0466C38.7904 56.5365 40.0893 56.208 40.9427 55.551C41.7963 54.8939 42.372 53.7971 42.6711 52.2603C42.9573 50.7847 42.827 49.7434 42.28 49.1368C41.7324 48.5302 40.6373 48.2268 38.9942 48.2268H36.0308L34.4157 56.5365ZM40.632 45.0937C43.134 45.0937 44.9593 45.7503 46.1066 47.0636C47.2537 48.3769 47.5992 50.2101 47.1415 52.5636C46.9531 53.5331 46.6344 54.4196 46.1858 55.2226C45.7367 56.0262 45.1503 56.761 44.4256 57.4272C43.5619 58.2355 42.6025 58.8114 41.5467 59.1544C40.491 59.4984 39.1464 59.6696 37.5117 59.6696H33.8069L32.781 64.9483H28.4559L32.3149 45.0937H40.632Z" fill="white"/>
<path d="M57.4596 60.0781C57.3375 60.0781 57.2218 60.0236 57.1443 59.9294C57.0666 59.8352 57.0351 59.7114 57.0584 59.5915L58.7654 50.8066C58.9278 49.9711 58.8877 49.3715 58.6527 49.1181C58.5089 48.9632 58.0768 48.7034 56.7991 48.7034H53.7066L51.5604 59.7474C51.5231 59.9394 51.3548 60.0781 51.1592 60.0781H46.8682C46.7461 60.0781 46.6305 60.0236 46.5528 59.9294C46.4752 59.8352 46.4437 59.7113 46.467 59.5915L50.3259 39.7368C50.3633 39.5449 50.5315 39.4062 50.7271 39.4062H55.0182C55.1402 39.4062 55.2559 39.4607 55.3335 39.5548C55.4112 39.6491 55.4426 39.7729 55.4193 39.8928L54.4881 44.6848H57.815C60.3494 44.6848 62.068 45.1317 63.069 46.0509C64.0893 46.9887 64.4076 48.4881 64.0153 50.508L62.2199 59.7474C62.1826 59.9394 62.0145 60.0781 61.8187 60.0781H57.4596Z" fill="black"/>
<path d="M55.0182 38.997H50.7271C50.3357 38.997 49.9994 39.2744 49.9248 39.6584L46.0658 59.5131C46.0192 59.7528 46.0822 60.0006 46.2375 60.189C46.3928 60.3773 46.6241 60.4863 46.8682 60.4863H51.1592C51.5505 60.4863 51.8869 60.209 51.9616 59.825L54.0435 49.1117H56.7991C58.0746 49.1117 58.3423 49.3841 58.3531 49.3958C58.4304 49.479 58.5322 49.8646 58.3642 50.7282L56.6572 59.5131C56.6106 59.7528 56.6736 60.0006 56.8288 60.189C56.9841 60.3773 57.2154 60.4863 57.4596 60.4863H61.8187C62.21 60.4863 62.5464 60.209 62.6211 59.825L64.4164 50.5856C64.8377 48.4168 64.4773 46.7899 63.3455 45.7497C62.2655 44.7578 60.4565 44.2757 57.815 44.2757H54.9837L55.8205 39.9704C55.867 39.7307 55.8042 39.4828 55.6489 39.2946C55.4936 39.1062 55.2623 38.997 55.0182 38.997ZM55.0182 39.8144L53.9923 45.0931H57.815C60.2203 45.0931 61.8793 45.5129 62.7924 46.3515C63.7056 47.1906 63.9791 48.5503 63.6141 50.4298L61.8187 59.669H57.4596L59.1666 50.8842C59.3608 49.8849 59.2895 49.2032 58.9522 48.8397C58.6147 48.4763 57.897 48.2943 56.7991 48.2943H53.3696L51.1592 59.669H46.8682L50.7271 39.8144H55.0182Z" fill="white"/>
<path d="M70.8049 56.1283C72.4484 56.1283 73.6754 55.8252 74.4517 55.2277C75.2198 54.6365 75.7502 53.6119 76.0284 52.1827C76.2876 50.8469 76.1888 49.9142 75.7348 49.4108C75.2707 48.8967 74.2673 48.636 72.7525 48.636H70.1259L68.6698 56.1283H70.8049ZM62.2143 65.3574C62.0924 65.3574 61.9766 65.3029 61.8991 65.2087C61.8215 65.1145 61.7899 64.9906 61.8132 64.8708L65.6721 45.0161C65.7096 44.8242 65.8777 44.6855 66.0734 44.6855H74.3903C77.0043 44.6855 78.9497 45.3952 80.1727 46.7952C81.4021 48.2024 81.7816 50.1696 81.3011 52.642C81.1052 53.6493 80.7688 54.5847 80.3009 55.4222C79.8324 56.2607 79.2133 57.0365 78.4604 57.7285C77.5591 58.572 76.5391 59.1836 75.4313 59.5435C74.3411 59.8987 72.941 60.0788 71.2699 60.0788H67.9021L66.9408 65.0267C66.9033 65.2187 66.7352 65.3574 66.5394 65.3574H62.2143Z" fill="black"/>
<path d="M70.4627 49.0442H72.7524C74.5806 49.0442 75.2157 49.4453 75.4315 49.6844C75.7896 50.0814 75.8572 50.9183 75.6269 52.1046C75.3684 53.4329 74.889 54.3746 74.2023 54.9034C73.4991 55.4448 72.3559 55.7191 70.8048 55.7191H69.1656L70.4627 49.0442ZM74.3902 44.2763H66.0732C65.6819 44.2763 65.3456 44.5537 65.271 44.9377L61.412 64.7924C61.3654 65.0321 61.4284 65.2799 61.5835 65.4682C61.7388 65.6566 61.9701 65.7656 62.2142 65.7656H66.5393C66.9306 65.7656 67.267 65.4883 67.3417 65.1043L68.239 60.487H71.2698C72.9838 60.487 74.4267 60.3001 75.558 59.9316C76.7215 59.5536 77.7922 58.9125 78.7397 58.0263C79.5232 57.3056 80.1684 56.4966 80.6574 55.6213C81.1466 54.7458 81.498 53.7695 81.702 52.7195C82.208 50.1169 81.7969 48.033 80.4802 46.5258C79.1763 45.0332 77.1273 44.2763 74.3902 44.2763ZM68.174 56.5365H70.8048C72.5486 56.5365 73.8475 56.208 74.7009 55.551C75.5546 54.8939 76.1302 53.7971 76.4293 52.2603C76.7156 50.7847 76.5853 49.7434 76.0382 49.1368C75.4906 48.5302 74.3955 48.2268 72.7524 48.2268H69.7889L68.174 56.5365ZM74.3902 45.0937C76.8922 45.0937 78.7175 45.7503 79.8647 47.0636C81.012 48.3769 81.3573 50.2101 80.8996 52.5636C80.7112 53.5331 80.3926 54.4196 79.944 55.2226C79.4949 56.0262 78.9084 56.761 78.1837 57.4272C77.3201 58.2355 76.3606 58.8114 75.3049 59.1544C74.2492 59.4984 72.9045 59.6696 71.2698 59.6696H67.5651L66.5393 64.9483H62.2142L66.0732 45.0937H74.3902Z" fill="white"/>
</g>
</g>
<defs>
<radialGradient id="paint0_radial_491_828" cx="0" cy="0" r="1" gradientUnits="userSpaceOnUse" gradientTransform="translate(39.1971 41.0069) scale(49.4571 49.4571)">
<stop stop-color="#AEB2D5"/>
<stop offset="0.3" stop-color="#AEB2D5"/>
<stop offset="0.75" stop-color="#484C89"/>
<stop offset="1" stop-color="#484C89"/>
</radialGradient>
<clipPath id="clip0_491_828">
<rect width="77.506" height="41.804" fill="white" transform="translate(15.4941 32.9512)"/>
</clipPath>
</defs>
</svg>
