<svg width="108" height="108" viewBox="0 0 108 108" fill="none" xmlns="http://www.w3.org/2000/svg">
<path d="M53.2594 27.0004C51.0677 27.0106 48.9747 27.1975 47.1331 27.5234C41.7079 28.4819 40.7229 30.488 40.7229 34.1876V39.0737H53.5433V40.7024H40.7229H35.9115C32.1856 40.7024 28.923 42.9419 27.9025 47.2023C26.7254 52.0856 26.6732 55.1329 27.9025 60.2318C28.8138 64.0273 30.9902 66.7317 34.7162 66.7317H39.1241V60.8744C39.1241 56.6428 42.7854 52.9102 47.1331 52.9102H59.9386C63.5031 52.9102 66.3488 49.9752 66.3488 46.3954V34.1876C66.3488 30.7132 63.4177 28.1033 59.9386 27.5234C57.7362 27.1568 55.4511 26.9903 53.2594 27.0004ZM46.3262 30.9302C47.6505 30.9302 48.7319 32.0293 48.7319 33.3808C48.7319 34.7274 47.6505 35.8163 46.3262 35.8163C44.9972 35.8163 43.9205 34.7274 43.9205 33.3808C43.9205 32.0293 44.9972 30.9302 46.3262 30.9302Z" fill="url(#paint0_linear_491_837)"/>
<path d="M67.9473 40.7031V46.3961C67.9473 50.8098 64.2054 54.5246 59.9383 54.5246H47.1329C43.6252 54.5246 40.7227 57.5267 40.7227 61.0394V73.2472C40.7227 76.7216 43.7439 78.7652 47.1329 79.762C51.1911 80.9553 55.0827 81.1709 59.9383 79.762C63.1659 78.8275 66.3485 76.9468 66.3485 73.2472V68.3611H53.543V66.7324H66.3485H72.7587C76.4847 66.7324 77.8731 64.1335 79.1689 60.2326C80.5074 56.2166 80.4504 52.3547 79.1689 47.203C78.2481 43.4938 76.4894 40.7031 72.7587 40.7031H67.9473ZM60.7452 71.6185C62.0742 71.6185 63.1509 72.7074 63.1509 74.0541C63.1509 75.4055 62.0742 76.5046 60.7452 76.5046C59.4209 76.5046 58.3395 75.4055 58.3395 74.0541C58.3395 72.7074 59.4209 71.6185 60.7452 71.6185Z" fill="url(#paint1_linear_491_837)"/>
<defs>
<linearGradient id="paint0_linear_491_837" x1="27" y1="27" x2="56.5624" y2="52.1913" gradientUnits="userSpaceOnUse">
<stop stop-color="#5A9FD4"/>
<stop offset="1" stop-color="#306998"/>
</linearGradient>
<linearGradient id="paint1_linear_491_837" x1="60.4371" y1="73.6433" x2="49.8312" y2="58.7813" gradientUnits="userSpaceOnUse">
<stop stop-color="#FFD43B"/>
<stop offset="1" stop-color="#FFE873"/>
</linearGradient>
</defs>
</svg>
