<svg width="108" height="108" viewBox="0 0 108 108" fill="none" xmlns="http://www.w3.org/2000/svg">
<g clip-path="url(#clip0_491_1025)">
<path d="M53.5006 59.8449C56.8971 59.8449 59.6506 57.0915 59.6506 53.6949C59.6506 50.2984 56.8971 47.5449 53.5006 47.5449C50.104 47.5449 47.3506 50.2984 47.3506 53.6949C47.3506 57.0915 50.104 59.8449 53.5006 59.8449Z" fill="#61DAFB"/>
<path d="M53.5 66.2937C71.7254 66.2937 86.5 60.6525 86.5 53.6937C86.5 46.735 71.7254 41.0938 53.5 41.0938C35.2746 41.0938 20.5 46.735 20.5 53.6937C20.5 60.6525 35.2746 66.2937 53.5 66.2937Z" stroke="#61DAFB" stroke-width="3"/>
<path d="M42.5878 59.9952C51.7005 75.7789 63.9732 85.7535 69.9997 82.2741C76.0262 78.7947 73.5243 63.1789 64.4116 47.3952C55.2989 31.6116 43.0262 21.637 36.9997 25.1164C30.9732 28.5958 33.4751 44.2116 42.5878 59.9952Z" stroke="#61DAFB" stroke-width="3"/>
<path d="M42.5878 47.3929C33.4751 63.1766 30.9732 78.7923 36.9997 82.2717C43.0262 85.7511 55.2989 75.7766 64.4116 59.9929C73.5243 44.2092 76.0262 28.5935 69.9997 25.1141C63.9732 21.6347 51.7005 31.6092 42.5878 47.3929Z" stroke="#61DAFB" stroke-width="3"/>
</g>
<defs>
<clipPath id="clip0_491_1025">
<rect width="69" height="61.3904" fill="white" transform="translate(19 23)"/>
</clipPath>
</defs>
</svg>







