<svg width="108" height="108" viewBox="0 0 108 108" fill="none" xmlns="http://www.w3.org/2000/svg">
<path fill-rule="evenodd" clip-rule="evenodd" d="M39.1978 22C37.3073 22.0041 35.4566 23.0895 34.5049 24.7455L19.7027 50.7545C18.7658 52.4149 18.7658 54.5851 19.7027 56.2455L34.5049 82.2545C35.4567 83.9105 37.3073 84.9963 39.1978 85H68.8022C70.6928 84.9959 72.5433 83.9105 73.4951 82.2545L88.2974 56.2455C89.2343 54.5851 89.2342 52.4149 88.2974 50.7545L73.4951 24.7455C72.5433 23.0895 70.6928 22.0038 68.8022 22H39.1978ZM39.4665 37.2156C39.5072 37.2115 39.5498 37.2115 39.5906 37.2156H44.6969C44.9229 37.2203 45.1422 37.3524 45.2551 37.5509L53.9173 53.1647C53.9609 53.2419 53.989 53.3279 53.9997 53.4162C54.0103 53.3279 54.0384 53.2418 54.082 53.1647L62.7235 37.5509C62.84 37.3464 63.0695 37.2136 63.3023 37.2156H68.4087C68.8608 37.2196 69.1995 37.7957 68.9876 38.2006L60.5322 53.5L68.9876 68.7785C69.2195 69.1857 68.8726 69.7885 68.4087 69.7844H63.3023C63.0655 69.7824 62.8346 69.6404 62.7235 69.4282L54.082 53.8144C54.0384 53.7372 54.0103 53.6512 53.9997 53.5629C53.989 53.6512 53.9609 53.7372 53.9173 53.8144L45.2551 69.4282C45.1473 69.6343 44.9269 69.775 44.6969 69.7844H39.5906C39.1267 69.7885 38.7799 69.1857 39.0118 68.7785L47.4672 53.5L39.0118 38.2006C38.8091 37.8312 39.0564 37.2944 39.4665 37.2156Z" fill="#3498DB"/>
</svg>
